<svg width="33" height="33" viewBox="0 0 33 33" fill="none" xmlns="http://www.w3.org/2000/svg">
<path d="M21.7945 0H4.6922C4.21606 0 3.83008 0.385982 3.83008 1.13496V32.4107C3.83008 32.614 4.21606 33 4.6922 33H28.3073C28.7834 33 29.1694 32.614 29.1694 32.4107V7.64775C29.1694 7.23761 29.1146 7.10561 29.0179 7.00838L22.161 0.151446C22.0638 0.0548036 21.9318 0 21.7945 0Z" fill="#E9E9E0"/>
<path d="M22.0981 0.0888672V7.07132H29.0806L22.0981 0.0888672Z" fill="#D9D7CA"/>
<path d="M11.4992 19.6374C11.2941 19.6374 11.0973 19.5708 10.9293 19.4453C10.3159 18.985 10.2334 18.473 10.2723 18.1241C10.3795 17.1647 11.5658 16.1606 13.7992 15.1376C14.6854 13.1953 15.5287 10.8022 16.0314 8.80277C15.4433 7.52284 14.8717 5.86223 15.2883 4.88814C15.4344 4.54694 15.6165 4.2853 15.9565 4.17216C16.0909 4.12737 16.4303 4.0708 16.5552 4.0708C16.8522 4.0708 17.1133 4.45325 17.2983 4.68896C17.4722 4.91053 17.8664 5.38019 17.0785 8.69729C17.8729 10.3379 18.9984 12.0091 20.0768 13.1535C20.8494 13.0138 21.5141 12.9425 22.0556 12.9425C22.9785 12.9425 23.5377 13.1576 23.7657 13.6007C23.9543 13.9673 23.8771 14.3957 23.5359 14.8736C23.2077 15.3326 22.7551 15.5754 22.2277 15.5754C21.5111 15.5754 20.6767 15.1229 19.7462 14.2289C18.0744 14.5784 16.1221 15.2018 14.544 15.8919C14.0514 16.9373 13.5793 17.7794 13.1397 18.3969C12.5357 19.2426 12.0148 19.6374 11.4992 19.6374ZM13.0678 16.6167C11.8085 17.3244 11.2953 17.9061 11.2581 18.2337C11.2523 18.2879 11.2363 18.4305 11.5121 18.6415C11.5999 18.6138 12.1126 18.3798 13.0678 16.6167ZM21.1039 13.9991C21.5842 14.3686 21.7015 14.5554 22.0156 14.5554C22.1535 14.5554 22.5465 14.5495 22.7286 14.2955C22.8164 14.1723 22.8506 14.0934 22.8641 14.051C22.7917 14.0126 22.6956 13.9349 22.1717 13.9349C21.8741 13.9354 21.4999 13.9484 21.1039 13.9991ZM16.702 10.1204C16.2806 11.5783 15.7243 13.1523 15.1262 14.5778C16.3578 14.0999 17.6967 13.6826 18.9542 13.3874C18.1587 12.4634 17.3637 11.3096 16.702 10.1204ZM16.3443 5.13387C16.2865 5.15332 15.5605 6.16925 16.4008 7.02902C16.9601 5.78268 16.3696 5.12562 16.3443 5.13387Z" fill="#CC4B4C"/>
<path d="M28.3073 32.9998H4.6922C4.21606 32.9998 3.83008 32.6138 3.83008 32.1377V22.9819H29.1694V32.1377C29.1694 32.6138 28.7834 32.9998 28.3073 32.9998Z" fill="#CC4B4C"/>
<path d="M10.2444 31.2321H9.27734V25.2944H10.9851C11.2373 25.2944 11.4872 25.3345 11.7341 25.4152C11.981 25.496 12.2026 25.6168 12.3988 25.7776C12.595 25.9385 12.7535 26.1336 12.8743 26.3616C12.9951 26.5897 13.0558 26.846 13.0558 27.1312C13.0558 27.4324 13.0046 27.7046 12.9026 27.9492C12.8007 28.1937 12.6581 28.3994 12.4754 28.5656C12.2927 28.7317 12.0723 28.8608 11.8148 28.9521C11.5573 29.0435 11.2721 29.0888 10.9609 29.0888H10.2438L10.2444 31.2321ZM10.2444 26.0275V28.3799H11.1306C11.2485 28.3799 11.3652 28.3599 11.4813 28.3192C11.5968 28.2792 11.7028 28.2132 11.7995 28.1218C11.8961 28.0305 11.9739 27.9032 12.0328 27.7394C12.0918 27.5756 12.1212 27.3728 12.1212 27.1312C12.1212 27.0346 12.1077 26.9226 12.0812 26.7971C12.0541 26.671 11.9993 26.5502 11.9162 26.4347C11.8325 26.3192 11.7158 26.2226 11.5655 26.1448C11.4153 26.067 11.2161 26.0281 10.9692 26.0281L10.2444 26.0275Z" fill="white"/>
<path d="M18.9857 28.0983C18.9857 28.5868 18.9333 29.0046 18.8284 29.3511C18.7235 29.6976 18.5909 29.9875 18.4294 30.2214C18.268 30.4554 18.0871 30.6393 17.8855 30.7736C17.684 30.908 17.4895 31.0081 17.3016 31.0759C17.1136 31.1431 16.9415 31.1861 16.7859 31.205C16.6304 31.2226 16.5149 31.2321 16.4394 31.2321H14.1919V25.2944H15.9804C16.4801 25.2944 16.9191 25.374 17.2974 25.5319C17.6758 25.6898 17.9904 25.9014 18.2403 26.1642C18.4901 26.427 18.6764 26.727 18.8001 27.0623C18.9239 27.3982 18.9857 27.7435 18.9857 28.0983ZM16.1177 30.5232C16.773 30.5232 17.2456 30.314 17.5355 29.895C17.8254 29.476 17.9704 28.869 17.9704 28.0741C17.9704 27.8272 17.9409 27.5826 17.882 27.341C17.8225 27.0994 17.7088 26.8808 17.5396 26.6846C17.3705 26.4883 17.1407 26.3298 16.8508 26.209C16.5608 26.0882 16.1849 26.0275 15.7229 26.0275H15.1589V30.5232H16.1177Z" fill="white"/>
<path d="M21.3706 26.0275V27.8967H23.8521V28.5573H21.3706V31.2321H20.3877V25.2944H24.1014V26.0275H21.3706Z" fill="white"/>
</svg>
