<svg width="500" height="500" viewBox="0 0 500 500" fill="none" xmlns="http://www.w3.org/2000/svg">
<path d="M77.073 445.614C77.941 442.172 75.667 438.734 73.127 436.254C70.587 433.774 67.553 431.557 66.22 428.267C64.06 422.937 66.884 416.004 63.224 411.567C61.071 408.957 57.233 408.101 55.32 405.311C54.317 403.847 53.984 402.044 53.584 400.315C51.539 391.497 47.073 383.254 40.805 376.725C40.416 384.59 42.195 392.551 45.896 399.502C47.383 402.296 49.206 405.018 49.711 408.142C50.532 413.216 47.727 418.464 49.003 423.443C50.462 429.138 56.89 432.918 57.227 438.787C57.512 443.749 53.211 448.13 53.562 453.087C53.711 455.198 54.703 457.153 55.804 458.96C59.678 465.318 65.34 469.68 73.884 469.489L84.352 469.796L77.073 445.614Z" fill="#F5F5F5"/>
<path d="M86.471 470.059C86.471 470.059 87.47 470.286 89.352 469.98C90.289 469.838 91.442 469.582 92.748 469.105C94.046 468.622 95.523 467.936 96.935 466.781C97.612 466.181 98.289 465.444 98.65 464.469C99.005 463.498 99.065 462.433 99.125 461.339C99.175 460.245 99.169 459.106 99.35 457.952C99.52 456.799 99.966 455.664 100.61 454.579C101.832 452.404 103.869 450.341 104.514 447.394C105.214 444.495 104.682 441.365 104.178 438.222C103.674 435.086 103.184 431.666 104.366 428.389C105.47 425.11 107.748 422.142 108.875 418.445C109.996 414.712 109.441 410.706 109.66 406.752C109.759 404.765 110.131 402.778 110.991 400.933C111.827 399.076 112.992 397.322 113.898 395.366C115.733 391.412 116.036 386.942 116.519 382.56C116.754 380.352 116.992 378.121 117.232 375.868C117.469 373.604 117.656 371.35 118.357 369.168C118.99 366.971 119.911 364.844 120.824 362.677C121.271 361.587 121.744 360.496 122.019 359.287C122.217 358.052 122.269 356.897 122.336 355.686C122.44 353.286 122.327 350.854 122.016 348.443C121.718 346.029 121.268 343.637 120.995 341.218C120.978 341.075 120.961 340.932 120.946 340.801L120.889 340.319L120.462 340.536C118.227 341.671 116.318 343.354 114.855 345.323C113.367 347.279 112.288 349.483 111.43 351.722C109.707 356.229 109.105 360.945 108.249 365.446C107.414 369.948 106.305 374.377 104.021 378.128C102.885 379.998 101.507 381.708 100.303 383.533C99.102 385.345 98.047 387.334 97.74 389.513C97.146 393.944 99.607 397.819 99.122 401.742C98.952 403.691 98.187 405.517 97.244 407.184C96.303 408.861 95.195 410.418 94.144 411.983C93.094 413.547 92.095 415.134 91.362 416.827C90.616 418.515 90.211 420.319 90.106 422.081C89.871 425.612 90.391 428.957 90.15 432.12C89.955 435.287 88.86 438.164 87.616 440.736C86.365 443.318 84.97 445.654 83.803 447.919C83.216 449.05 82.675 450.155 82.235 451.263C81.769 452.369 81.544 453.501 81.335 454.577C81.004 456.749 81.049 458.77 81.292 460.551C81.768 464.133 83.119 466.708 84.33 468.152C84.608 468.538 84.929 468.81 85.182 469.064C85.429 469.327 85.673 469.505 85.872 469.643C86.261 469.928 86.471 470.059 86.471 470.059C86.517 470.006 85.607 469.53 84.433 468.066C83.273 466.614 81.979 464.058 81.549 460.516C81.329 458.756 81.305 456.76 81.649 454.628C81.864 453.574 82.094 452.465 82.556 451.392C82.995 450.31 83.542 449.211 84.134 448.092C85.31 445.847 86.72 443.52 87.999 440.922C89.268 438.336 90.406 435.403 90.622 432.154C90.879 428.925 90.374 425.567 90.621 422.119C90.731 420.394 91.127 418.675 91.854 417.041C92.57 415.402 93.555 413.846 94.605 412.293C95.655 410.739 96.776 409.176 97.744 407.463C98.712 405.762 99.522 403.861 99.709 401.798C100.19 397.619 97.747 393.719 98.352 389.6C98.643 387.562 99.644 385.66 100.829 383.88C102.014 382.089 103.399 380.378 104.569 378.46C106.925 374.602 108.052 370.087 108.896 365.567C109.76 361.038 110.364 356.371 112.056 351.958C112.898 349.764 113.954 347.616 115.392 345.727C116.807 343.824 118.634 342.221 120.763 341.138L120.279 340.874C120.295 341.007 120.312 341.151 120.329 341.296C120.606 343.743 121.057 346.14 121.351 348.526C121.659 350.91 121.77 353.294 121.669 355.658C121.607 356.825 121.543 358.05 121.367 359.151C121.118 360.253 120.654 361.342 120.211 362.421C119.304 364.58 118.37 366.739 117.725 368.984C117.01 371.218 116.815 373.558 116.585 375.795C116.348 378.05 116.113 380.282 115.88 382.492C115.405 386.893 115.102 391.291 113.335 395.107C112.462 397.007 111.299 398.766 110.438 400.684C109.549 402.598 109.162 404.698 109.069 406.718C108.864 410.758 109.412 414.703 108.34 418.287C107.275 421.854 105.009 424.838 103.875 428.221C102.66 431.64 103.191 435.172 103.708 438.298C104.231 441.446 104.757 444.51 104.098 447.297C103.509 450.112 101.531 452.156 100.284 454.393C99.635 455.503 99.172 456.704 99.006 457.9C98.829 459.093 98.846 460.242 98.805 461.328C98.757 462.406 98.701 463.464 98.376 464.373C98.053 465.279 97.416 465.996 96.765 466.585C95.405 467.723 93.955 468.424 92.678 468.92C91.394 469.412 90.256 469.686 89.33 469.849C88.404 470.022 87.684 470.05 87.202 470.067C86.721 470.05 86.471 470.059 86.471 470.059Z" fill="#E0E0E0"/>
<path d="M118.839 346.576C118.828 346.574 118.794 346.681 118.74 346.893C118.68 347.144 118.606 347.454 118.514 347.837C118.313 348.662 118.074 349.908 117.688 351.465C117.286 353.017 116.346 354.777 115.547 356.944C114.715 359.094 113.873 361.584 113.101 364.382C112.319 367.177 111.629 370.281 110.908 373.605C110.164 376.924 109.423 380.483 107.616 383.845C106.768 385.55 105.812 387.276 105.055 389.163C104.279 391.05 103.867 393.11 103.582 395.177C103.103 399.325 102.366 403.539 101.398 407.851C99.348 416.44 97.396 424.62 95.618 432.068C93.796 439.491 92.154 446.181 90.77 451.819C89.424 457.407 88.33 461.947 87.558 465.149C87.203 466.685 86.922 467.899 86.718 468.781C86.636 469.166 86.57 469.478 86.516 469.73C86.474 469.945 86.458 470.056 86.469 470.059C86.48 470.062 86.518 469.956 86.582 469.747C86.653 469.499 86.741 469.192 86.849 468.815C87.083 467.94 87.405 466.737 87.812 465.213C88.633 462.023 89.798 457.501 91.231 451.935C92.655 446.306 94.344 439.628 96.218 432.218C98.013 424.767 99.984 416.585 102.054 407.994C103.023 403.688 103.767 399.396 104.234 395.267C104.513 393.214 104.907 391.229 105.651 389.398C106.38 387.559 107.321 385.842 108.17 384.119C109.992 380.693 110.738 377.026 111.452 373.721C112.149 370.388 112.81 367.294 113.559 364.504C114.298 361.713 115.103 359.226 115.897 357.074C116.655 354.915 117.563 353.134 117.94 351.53C118.293 349.935 118.486 348.702 118.645 347.862C118.71 347.474 118.763 347.16 118.805 346.905C118.84 346.69 118.851 346.578 118.839 346.576Z" fill="#E0E0E0"/>
<path d="M88.318 470.081C95.131 465.979 97.023 453.634 94.129 446.226C91.235 438.818 86.205 432.064 85.391 424.153C84.765 418.072 86.722 411.816 85.271 405.877C83.313 397.862 75.442 391.69 75.486 383.44C75.51 378.811 78.119 374.441 77.883 369.817C77.594 364.146 73.214 359.671 70.489 354.69C66.318 347.065 65.995 338.024 64.535 329.457C63.075 320.89 59.755 311.724 52.13 307.552C51.049 314.839 49.161 319.836 49.819 329.696C50.055 333.237 54.209 339.995 54.813 347.755C55.174 352.393 55.432 357.039 55.742 361.68C56.043 366.197 56.362 370.796 58.006 375.015C59.265 378.247 61.276 381.179 62.217 384.518C63.987 390.8 61.747 397.628 63.183 403.995C64.4 409.389 68.164 414.016 68.959 419.488C70.076 427.177 65.141 435.2 67.732 442.525C69.018 446.16 72.03 449.067 72.902 452.823C73.578 455.737 72.877 458.83 73.491 461.758C74.48 466.475 83.509 470.091 88.318 469.772" fill="#E0E0E0"/>
<path d="M54.057 314.769C54.045 314.771 54.057 314.91 54.089 315.18C54.13 315.486 54.183 315.88 54.25 316.376C54.413 317.427 54.598 318.97 54.964 320.964C55.358 322.97 56.404 325.224 57.247 327.944C58.135 330.656 59.02 333.786 59.807 337.291C60.607 340.794 61.282 344.672 61.991 348.846C62.723 352.989 63.473 357.568 65.57 361.906C66.541 364.086 67.63 366.267 68.45 368.592C69.291 370.909 69.686 373.404 69.934 375.971C70.316 381.126 71.034 386.485 72.029 391.884C74.184 402.66 76.237 412.923 78.105 422.265C80.071 431.57 81.843 439.952 83.334 447.01C84.839 454.015 86.06 459.699 86.916 463.68C87.346 465.611 87.683 467.127 87.923 468.205C88.038 468.692 88.13 469.079 88.202 469.378C88.268 469.642 88.308 469.776 88.319 469.773C88.33 469.771 88.313 469.632 88.269 469.364C88.214 469.061 88.144 468.669 88.056 468.177C87.846 467.092 87.549 465.568 87.172 463.626C86.367 459.635 85.217 453.936 83.799 446.912C82.348 439.847 80.624 431.454 78.711 422.138C76.86 412.799 74.826 402.538 72.691 391.765C71.696 386.361 70.983 381.08 70.589 375.904C70.335 373.323 69.924 370.753 69.055 368.378C68.209 366.003 67.106 363.813 66.135 361.651C64.05 357.377 63.301 352.906 62.54 348.748C61.808 344.581 61.104 340.692 60.271 337.182C59.451 333.67 58.529 330.534 57.604 327.823C56.72 325.093 55.641 322.859 55.22 320.904C54.82 318.946 54.589 317.388 54.384 316.351C54.29 315.86 54.215 315.469 54.157 315.166C54.102 314.903 54.068 314.768 54.057 314.769Z" fill="#EBEBEB"/>
<path d="M210.31 55.227C216.149 48.416 231.329 52.698 241.732 58.27C241.732 58.27 248.89 61.645 251.554 63.396C251.583 63.403 251.611 63.409 251.64 63.417L275.964 60.379C277.939 60.132 279.943 60.484 281.716 61.389L283.709 62.405C284.716 62.919 284.666 64.374 283.627 64.818L265.721 72.473C265.713 72.572 265.712 72.594 265.704 72.693C275.225 78.949 283.38 84.307 283.38 84.307C283.467 84.366 283.556 84.424 283.645 84.481C286.974 86.608 290.992 87.416 294.903 86.717L304.37 85.024C304.85 84.938 305.352 84.959 305.803 85.144C307.485 85.835 307.81 88.045 306.436 89.195L295.47 98.364C293.752 99.8 291.361 100.119 289.327 99.182L284.192 96.818L258.209 84.446L261.191 99.24C261.301 99.849 260.82 100.405 260.201 100.382L258.976 100.337C257.299 100.275 255.772 99.353 254.937 97.898L244.465 77.902L213.813 63.307C209.728 61.427 208.269 57.923 210.31 55.227Z" fill="#E0E0E0"/>
<path d="M39.984 120.712L117.11 118.97C117.11 118.97 110.009 106.713 90.198 108.968C71.277 111.121 70.136 103.312 60.474 102.566C50.812 101.82 42.944 109.391 39.984 120.712Z" fill="#F5F5F5"/>
<path d="M400.576 162.417H473.234C473.234 162.417 466.809 150.725 448.107 152.427C430.245 154.052 429.337 146.675 420.255 145.767C411.171 144.857 403.603 151.821 400.576 162.417Z" fill="#F5F5F5"/>
<path d="M83.906 82.436H139.332C139.332 82.436 134.431 73.517 120.164 74.815C106.539 76.055 105.846 70.427 98.918 69.734C91.989 69.042 86.216 74.353 83.906 82.436Z" fill="#F5F5F5"/>
<path d="M400.647 199.076H436.905C436.905 199.076 433.699 193.241 424.366 194.091C415.453 194.902 414.999 191.221 410.467 190.767C405.934 190.314 402.158 193.789 400.647 199.076Z" fill="#F5F5F5"/>
<path d="M382.518 98.716H418.775C418.775 98.716 415.569 92.881 406.236 93.73C397.323 94.541 396.87 90.86 392.337 90.406C387.806 89.954 384.029 93.429 382.518 98.716Z" fill="#FAFAFA"/>
<path d="M474.435 470.14C474.435 470.284 373.496 470.4 249.011 470.4C124.482 470.4 23.565 470.283 23.565 470.14C23.565 469.997 124.482 469.88 249.011 469.88C373.496 469.88 474.435 469.996 474.435 470.14Z" fill="#263238"/>
<path d="M405.346 293.797C405.195 292.353 403.977 291.257 402.525 291.258L381.173 291.28C379.396 291.282 378.062 292.906 378.407 294.65C378.673 295.997 379.871 296.957 381.244 296.924L402.528 296.925C404.209 296.926 405.521 295.47 405.346 293.797Z" fill="#263238"/>
<path d="M451.918 463.145C451.373 466.866 453.948 470.325 457.669 470.87C461.39 471.415 464.849 468.84 465.394 465.119C465.939 461.398 463.364 457.939 459.643 457.394C455.921 456.849 452.463 459.423 451.918 463.145Z" fill="#263238"/>
<path d="M457.244 464.169L453.089 455.59L455.266 454.204L459.294 463.16L457.244 464.169Z" fill="#455A64"/>
<path d="M418.776 358.542L392.986 291.255L388.09 293.713L413.084 360.386L418.776 358.542Z" fill="#263238"/>
<path d="M440.271 462.523L478.341 447.398C479.759 446.835 480.451 445.229 479.888 443.812L441.996 348.432C439.014 340.927 430.513 337.26 423.008 340.242L406.982 346.609C399.477 349.591 395.81 358.092 398.792 365.597L436.684 460.977C437.248 462.394 438.854 463.086 440.271 462.523Z" fill="#E8505B"/>
<path d="M436.599 461.452C436.599 461.452 436.542 461.25 436.403 460.868C436.252 460.465 436.042 459.902 435.771 459.176C435.195 457.67 434.36 455.489 433.289 452.691C431.1 447.046 427.948 438.916 424.056 428.88C420.135 418.828 415.47 406.87 410.292 393.593C407.696 386.954 404.97 379.986 402.145 372.763C401.438 370.957 400.725 369.136 400.006 367.299C399.245 365.511 398.996 363.543 399.207 361.602C399.669 357.713 402.378 354.124 406.14 352.67C409.887 351.176 414.317 351.963 417.301 354.502C418.775 355.781 419.932 357.395 420.59 359.224C421.311 361.06 422.026 362.882 422.734 364.687C425.571 371.907 428.308 378.872 430.915 385.508C436.139 398.769 440.844 410.712 444.799 420.751C448.765 430.758 451.977 438.864 454.207 444.492C455.323 447.272 456.192 449.439 456.793 450.936C457.088 451.653 457.316 452.208 457.48 452.606C457.638 452.981 457.733 453.168 457.733 453.168C457.733 453.168 457.676 452.966 457.537 452.584C457.387 452.181 457.177 451.619 456.905 450.892C456.329 449.386 455.494 447.205 454.423 444.407C452.234 438.763 449.082 430.634 445.191 420.597C441.27 410.545 436.605 398.586 431.426 385.308C428.829 378.668 426.103 371.699 423.277 364.474C422.57 362.668 421.857 360.846 421.138 359.009C420.461 357.116 419.234 355.39 417.683 354.049C414.543 351.373 409.873 350.542 405.925 352.117C401.961 353.648 399.106 357.432 398.623 361.528C398.397 363.565 398.673 365.664 399.462 367.512C400.183 369.348 400.897 371.169 401.606 372.974C404.442 380.193 407.178 387.156 409.785 393.791C415.008 407.05 419.713 418.993 423.668 429.031C427.634 439.038 430.846 447.144 433.077 452.773C434.193 455.554 435.063 457.721 435.663 459.218C435.958 459.935 436.186 460.491 436.35 460.888C436.504 461.265 436.599 461.452 436.599 461.452Z" fill="#263238"/>
<path d="M434.138 393.669C434.218 393.924 439.202 391.962 445.268 389.286C451.336 386.609 456.188 384.232 456.108 383.977C456.028 383.722 451.045 385.684 444.977 388.361C438.911 391.037 434.058 393.414 434.138 393.669Z" fill="#263238"/>
<path d="M400.444 291.255L395.986 282.453C395.492 281.467 394.66 280.691 393.642 280.268L386.63 277.355L367.773 251.769L366.01 271.356L378.041 283.752C378.041 283.752 385.566 299.61 391.717 298.804C391.717 298.804 391.51 296.476 390.484 294.709C388.48 291.255 390.615 291.255 390.892 291.27L395.997 291.28L400.444 291.255Z" fill="#FFBE9D"/>
<path d="M369.646 277.721C370.218 278.574 374.884 284.888 374.884 284.888L388.09 275.28L383.291 270.592L369.646 277.721Z" fill="#E8505B"/>
<path d="M390.483 294.708C390.483 294.708 393.917 296.66 394.345 298.33V299.315L390.228 298.717L390.483 294.708Z" fill="#FFBE9D"/>
<path d="M395.09 296.592C394.525 296.067 393.938 295.507 393.707 294.771C393.476 294.035 393.755 293.079 394.487 292.836C395.202 292.599 395.932 293.112 396.491 293.616C397.198 294.254 397.871 294.929 398.505 295.639C399.03 296.227 399.561 296.969 399.372 297.733C399.22 298.348 398.598 298.777 397.966 298.816C397.334 298.855 396.715 298.557 396.254 298.122C395.793 297.687 395.472 297.127 395.199 296.555" fill="#FFBE9D"/>
<path d="M398.581 296.293C398.016 295.768 397.429 295.208 397.198 294.472C396.967 293.736 397.246 292.78 397.978 292.537C398.693 292.3 399.423 292.812 399.982 293.317C400.689 293.954 401.362 294.63 401.996 295.34C402.521 295.927 403.052 296.67 402.863 297.434C402.711 298.049 402.089 298.478 401.457 298.517C400.825 298.556 400.206 298.258 399.745 297.823C399.284 297.388 398.963 296.828 398.69 296.256" fill="#FFBE9D"/>
<path d="M388.09 281.266C388.079 281.147 388.98 281.194 390.005 282.084C390.492 282.588 390.807 283.278 391.203 284.028C391.569 284.787 391.953 285.714 391.881 286.771C391.802 287.843 391.221 288.67 390.802 289.373C390.362 290.055 390.131 290.759 389.979 291.356C389.666 292.566 389.907 293.328 389.835 293.349C389.776 293.393 389.381 292.59 389.618 291.283C389.73 290.645 389.941 289.877 390.389 289.129C390.799 288.4 391.304 287.625 391.362 286.733C391.427 285.837 391.102 284.978 390.769 284.233C390.411 283.493 390.111 282.776 389.736 282.336C389.337 281.917 388.875 281.646 388.583 281.482C388.28 281.314 388.097 281.303 388.09 281.266Z" fill="#EB996E"/>
<path d="M245.775 191.015L231.762 235.826L272.996 278.905L310.788 269.082L245.775 191.015Z" fill="#F5F5F5"/>
<path d="M245.775 191.015C245.775 191.015 245.881 191.131 246.094 191.38C246.319 191.646 246.634 192.017 247.043 192.501C247.893 193.512 249.128 194.982 250.72 196.876C253.943 200.721 258.608 206.286 264.426 213.225C276.112 227.203 292.424 246.716 310.984 268.917L311.243 269.227L310.851 269.329C303.989 271.114 296.844 272.972 289.547 274.87C283.941 276.326 278.425 277.759 273.06 279.153L272.913 279.191L272.808 279.082C257.265 262.814 243.112 248.002 231.613 235.966L231.529 235.879L231.565 235.765C235.912 222.037 239.463 210.825 241.933 203.026C243.16 199.173 244.117 196.163 244.775 194.099C245.097 193.095 245.344 192.324 245.517 191.785C245.686 191.266 245.775 191.015 245.775 191.015C245.294 192.578 240.356 208.613 231.956 235.887L231.909 235.686C243.43 247.7 257.61 262.487 273.183 278.727L272.932 278.656C278.296 277.261 283.812 275.827 289.417 274.369C296.715 272.474 303.861 270.618 310.723 268.836L310.591 269.248C292.176 247.049 275.991 227.538 264.396 213.562C258.601 206.557 253.954 200.94 250.744 197.059C249.149 195.126 247.912 193.627 247.06 192.595C246.647 192.092 246.33 191.705 246.104 191.428C245.887 191.162 245.775 191.015 245.775 191.015Z" fill="#263238"/>
<path d="M247.057 220.574C249.019 217.189 254.133 216.182 257.232 218.57C259.812 220.558 260.996 224.341 264.097 225.338C266.341 226.059 268.805 225.007 271.125 225.423C273.84 225.91 275.856 228.375 276.641 231.019C277.426 233.663 277.214 236.487 276.994 239.237L263.578 239.423L247.057 220.574Z" fill="#E0E0E0"/>
<path d="M222.265 195.102L309.157 284.649L273.748 281.061L224.215 228.767L222.265 195.102Z" fill="#F5F5F5"/>
<path d="M222.265 195.102C222.347 196.411 223.074 207.931 224.388 228.756L224.341 228.647C237.006 241.987 254.318 260.223 273.933 280.884L273.774 280.806C282.528 281.691 291.62 282.611 300.937 283.553C303.762 283.839 306.566 284.124 309.183 284.389L308.97 284.829C260.647 234.822 224.182 197.086 222.265 195.102C224.189 197.076 260.812 234.661 309.344 284.467L309.842 284.979L309.131 284.907C306.514 284.642 303.709 284.358 300.884 284.072C291.568 283.126 282.476 282.203 273.722 281.314L273.628 281.304L273.563 281.235C253.995 260.529 236.725 242.254 224.09 228.885L224.046 228.839L224.043 228.776C222.943 207.939 222.334 196.411 222.265 195.102Z" fill="#263238"/>
<path d="M256.271 230.692C253.586 233.779 253.978 238.714 256.274 242.101C258.57 245.488 262.344 247.574 266.163 249.041C269.252 250.227 273.059 250.982 275.615 248.882" fill="#E0E0E0"/>
<path d="M251.749 225.825C251.912 226.574 250.973 227.129 250.211 227.056C249.448 226.983 248.746 226.564 247.981 226.521C245.891 226.404 244.755 228.881 243.047 230.092C241.053 231.506 237.927 230.899 236.607 228.842C235.469 227.069 235.497 224.454 233.698 223.356C232.702 222.748 231.44 222.832 230.293 223.048C229.147 223.264 227.985 223.594 226.833 223.412C225.681 223.231 224.529 222.337 224.534 221.17L223.912 220.195L222.425 195.482L251.749 225.825Z" fill="#E0E0E0"/>
<path d="M294.1 282.836C296.064 283.174 297.938 282.175 298.237 280.205C298.536 278.235 296.989 276.175 295.013 275.914C293.243 275.68 291.411 276.708 289.707 276.177C287.772 275.574 286.969 273.321 286.477 271.354C285.985 269.388 285.303 267.13 283.423 266.372C280.305 265.114 277.025 269.1 273.781 268.22C271.374 267.568 270.44 264.675 268.554 263.043C267.041 261.734 264.821 261.297 262.925 261.936C261.029 262.575 259.914 263.647 259.502 265.605L273.847 280.735L294.1 282.836Z" fill="#E0E0E0"/>
<path d="M270.344 434.178L266.774 454.761C266.774 454.761 244.654 458.045 243.623 461.784L283.283 470.14L290.162 438.298L270.344 434.178Z" fill="#E8505B"/>
<g opacity="0.6">
<path d="M279.399 455.626C280.122 455.998 280.471 456.972 280.129 457.71C279.787 458.448 278.799 458.811 278.069 458.452C277.339 458.093 276.885 456.936 277.307 456.241C277.729 455.546 278.913 455.183 279.535 455.706" fill="white"/>
</g>
<path opacity="0.6" d="M283.283 470.14L283.969 466.965L245.613 460.103C245.613 460.103 243.685 460.499 243.623 461.785L283.283 470.14Z" fill="white"/>
<path d="M266.173 454.424C266.139 454.619 267.088 454.911 267.91 455.734C268.753 456.536 269.068 457.478 269.262 457.439C269.448 457.439 269.404 456.22 268.391 455.241C267.388 454.253 266.169 454.237 266.173 454.424Z" fill="#263238"/>
<path d="M261.651 455.268C261.567 455.446 262.337 455.952 262.822 456.91C263.335 457.853 263.315 458.774 263.509 458.806C263.685 458.875 264.058 457.769 263.432 456.59C262.816 455.405 261.694 455.084 261.651 455.268Z" fill="#263238"/>
<path d="M258.239 459.749C258.406 459.827 258.88 458.916 258.606 457.751C258.34 456.583 257.515 455.973 257.399 456.117C257.256 456.253 257.724 456.946 257.934 457.906C258.168 458.861 258.051 459.689 258.239 459.749Z" fill="#263238"/>
<path d="M267.507 449.823C267.551 450.017 268.496 449.937 269.575 450.242C270.66 450.525 271.434 451.072 271.57 450.927C271.712 450.811 271.031 449.918 269.755 449.577C268.483 449.226 267.444 449.651 267.507 449.823Z" fill="#263238"/>
<path opacity="0.3" d="M269.641 438.256L269 441.923L288.53 445.852L289.246 442.577L269.641 438.256Z" fill="black"/>
<path d="M268.304 445.684C268.285 445.764 269.025 446.044 270.293 446.092C270.924 446.115 271.683 446.067 272.506 445.892C272.917 445.804 273.343 445.684 273.774 445.527C273.982 445.448 274.223 445.375 274.472 445.186C274.729 445.029 274.959 444.541 274.778 444.174C274.639 443.826 274.308 443.619 274.023 443.552C273.733 443.481 273.483 443.49 273.256 443.498C272.792 443.512 272.347 443.571 271.932 443.662C271.102 443.847 270.394 444.153 269.847 444.478C268.747 445.136 268.281 445.794 268.339 445.845C268.413 445.927 268.989 445.415 270.073 444.909C270.613 444.657 271.286 444.421 272.055 444.284C272.44 444.218 272.847 444.176 273.27 444.173C273.713 444.151 274.071 444.224 274.14 444.433C274.164 444.513 274.163 444.542 274.049 444.646C273.934 444.74 273.741 444.815 273.536 444.894C273.137 445.049 272.742 445.173 272.36 445.273C271.596 445.471 270.885 445.565 270.285 445.604C269.082 445.683 268.323 445.578 268.304 445.684Z" fill="#263238"/>
<path d="M268.498 446.015C268.56 446.059 269.091 445.446 269.426 444.207C269.59 443.592 269.684 442.824 269.613 441.975C269.575 441.551 269.495 441.108 269.361 440.662C269.211 440.221 269.038 439.637 268.305 439.392C267.916 439.295 267.525 439.532 267.359 439.771C267.171 440.011 267.097 440.236 267.002 440.456C266.831 440.904 266.744 441.36 266.719 441.793C266.666 442.664 266.864 443.439 267.135 444.023C267.694 445.214 268.453 445.616 268.483 445.554C268.568 445.47 267.972 444.954 267.587 443.842C267.397 443.294 267.272 442.597 267.352 441.843C267.391 441.467 267.478 441.079 267.63 440.703C267.781 440.295 268.011 439.988 268.159 440.064C268.357 440.102 268.625 440.49 268.717 440.861C268.846 441.26 268.931 441.658 268.982 442.041C269.08 442.81 269.043 443.519 268.949 444.104C268.758 445.282 268.399 445.963 268.498 446.015Z" fill="#263238"/>
<path d="M400.664 435.432L392.086 424.233L391.641 423.652L377.03 434.519L390.561 449.382L390.066 464.425C382.53 466.374 381.398 470.14 381.398 470.14L397.063 470.123L411.289 442.717L400.664 435.432Z" fill="#E8505B"/>
<path opacity="0.6" d="M411.288 442.717L397.063 470.123L381.398 470.14L383.16 467.784L395.898 467.07L409.028 441.168L411.288 442.717Z" fill="white"/>
<path d="M390.161 457.533C390.277 457.693 391.18 457.179 392.391 457.213C393.603 457.212 394.492 457.75 394.612 457.593C394.759 457.475 393.876 456.537 392.4 456.524C390.926 456.497 390.017 457.411 390.161 457.533Z" fill="#263238"/>
<path d="M390.411 453.802C390.568 453.912 391.265 452.988 392.514 452.743C393.761 452.486 394.761 453.069 394.863 452.907C394.916 452.836 394.736 452.574 394.295 452.334C393.864 452.095 393.15 451.913 392.378 452.068C391.606 452.223 391.019 452.667 390.713 453.055C390.4 453.446 390.335 453.757 390.411 453.802Z" fill="#263238"/>
<path d="M390.306 449.01C390.478 449.096 391.011 448.191 392.102 447.813C393.189 447.421 394.172 447.79 394.252 447.615C394.294 447.536 394.095 447.318 393.661 447.156C393.235 446.994 392.559 446.922 391.872 447.164C391.186 447.407 390.705 447.888 390.476 448.282C390.241 448.68 390.224 448.975 390.306 449.01Z" fill="#263238"/>
<path d="M386.111 445.297C386.297 445.362 386.737 444.471 387.709 443.841C388.663 443.183 389.654 443.117 389.665 442.92C389.718 442.739 388.504 442.473 387.326 443.269C386.141 444.053 385.923 445.276 386.111 445.297Z" fill="#263238"/>
<path d="M384.066 442.082C384.145 442.134 384.662 441.504 385.432 440.442C385.867 439.822 386.306 439.197 386.755 438.558C386.981 438.191 387.297 437.871 387.481 437.292C387.562 437 387.556 436.654 387.385 436.34C387.225 436.008 386.783 435.798 386.439 435.846C385.756 435.946 385.374 436.298 384.977 436.606C384.594 436.936 384.279 437.311 384.026 437.694C383.522 438.467 383.285 439.276 383.205 439.955C383.053 441.341 383.507 442.129 383.561 442.094C383.682 442.068 383.426 441.267 383.686 440.033C383.818 439.424 384.078 438.716 384.551 438.051C384.789 437.721 385.074 437.403 385.41 437.123C385.739 436.856 386.169 436.563 386.49 436.533C386.645 436.527 386.72 436.567 386.786 436.675C386.851 436.79 386.871 436.959 386.828 437.119C386.743 437.453 386.442 437.841 386.224 438.21C385.817 438.877 385.419 439.529 385.024 440.175C384.359 441.305 383.986 442.03 384.066 442.082Z" fill="#263238"/>
<path d="M383.506 442.548C383.58 442.543 383.52 441.72 382.671 440.778C381.846 439.888 380.035 438.937 378.027 439.943C377.884 440.066 377.771 440.289 377.784 440.503C377.792 440.72 377.885 440.881 377.973 440.999C378.159 441.242 378.364 441.363 378.535 441.492C378.899 441.747 379.273 441.956 379.643 442.124C380.382 442.462 381.1 442.632 381.704 442.698C382.922 442.828 383.655 442.592 383.64 442.516C383.63 442.406 382.898 442.46 381.783 442.218C381.228 442.096 380.58 441.892 379.918 441.553C379.587 441.384 379.253 441.182 378.929 440.944C378.765 440.819 378.599 440.703 378.524 440.591C378.447 440.454 378.467 440.493 378.493 440.452C378.544 440.394 378.753 440.329 378.947 440.283C379.14 440.237 379.335 440.206 379.528 440.193C379.914 440.163 380.292 440.195 380.641 440.272C381.344 440.423 381.915 440.766 382.332 441.128C383.167 441.87 383.401 442.592 383.506 442.548Z" fill="#263238"/>
<path opacity="0.6" d="M398.792 442.249C398.792 443.275 399.624 444.107 400.65 444.107C401.676 444.107 402.508 443.275 402.508 442.249C402.508 441.223 401.676 440.391 400.65 440.391C399.624 440.391 398.792 441.223 398.792 442.249Z" fill="white"/>
<path opacity="0.3" d="M378.391 436.013L381.398 439.317L394.045 426.791L392.288 424.496L378.391 436.013Z" fill="black"/>
<path d="M339.454 175.206C347.746 172.311 356.886 171.896 365.406 174.028C369.219 174.982 373.087 176.563 375.532 179.64C378.424 183.279 378.784 188.243 379.228 192.87C380.129 202.282 381.866 211.614 384.411 220.72C386.529 228.301 389.215 235.763 390.36 243.55C391.505 251.337 390.977 259.672 387.009 266.47C380.893 276.949 367.884 281.584 355.752 281.786C349.365 281.892 342.833 280.958 337.17 278.002C331.507 275.047 326.802 269.872 325.42 263.636" fill="#E8505B"/>
<g opacity="0.5">
<path d="M339.454 175.206C347.746 172.311 356.886 171.896 365.406 174.028C369.219 174.982 373.087 176.563 375.532 179.64C378.424 183.279 378.784 188.243 379.228 192.87C380.129 202.282 381.866 211.614 384.411 220.72C386.529 228.301 389.215 235.763 390.36 243.55C391.505 251.337 390.977 259.672 387.009 266.47C380.893 276.949 367.884 281.584 355.752 281.786C349.365 281.892 342.833 280.958 337.17 278.002C331.507 275.047 326.802 269.872 325.42 263.636" fill="black"/>
</g>
<path d="M356.126 184.806C356.049 184.895 357.801 185.998 359.596 188.699C360.503 190.034 361.397 191.741 362.303 193.69C363.222 195.63 364.172 197.823 365.529 199.953C366.888 202.075 368.605 203.876 370.542 204.969C372.463 206.097 374.577 206.368 376.22 206.08C377.883 205.814 379.098 205.085 379.767 204.446C380.112 204.134 380.339 203.849 380.471 203.645C380.605 203.441 380.666 203.33 380.647 203.317C380.599 203.28 380.306 203.7 379.604 204.254C378.913 204.809 377.733 205.432 376.155 205.628C374.585 205.84 372.641 205.546 370.838 204.454C369.025 203.395 367.389 201.663 366.071 199.604C364.751 197.534 363.791 195.369 362.838 193.433C361.899 191.489 360.944 189.768 359.969 188.438C359.003 187.101 358.043 186.154 357.322 185.583C356.602 185.008 356.146 184.775 356.126 184.806Z" fill="#E0E0E0"/>
<path d="M373.701 278.476C373.723 278.475 373.733 278.205 373.731 277.693C373.721 277.112 373.709 276.37 373.693 275.452C373.648 273.506 373.548 270.692 373.396 267.216C373.093 260.264 372.545 250.664 371.715 240.079C370.881 229.49 369.923 219.922 369.136 213.007C368.744 209.55 368.403 206.755 368.143 204.826C368.015 203.917 367.911 203.182 367.83 202.607C367.752 202.1 367.7 201.836 367.678 201.839C367.656 201.841 367.665 202.111 367.701 202.622C367.751 203.201 367.814 203.94 367.893 204.854C368.087 206.872 368.354 209.653 368.682 213.054C369.352 219.978 370.238 229.546 371.071 240.129C371.901 250.708 372.52 260.296 372.94 267.24C373.148 270.651 373.319 273.439 373.442 275.463C373.507 276.378 373.56 277.119 373.601 277.698C373.645 278.209 373.679 278.477 373.701 278.476Z" fill="#E0E0E0"/>
<path d="M371.206 235.96C371.213 236.131 375.042 236.086 379.721 235.501C384.403 234.925 388.125 234.035 388.091 233.867C388.055 233.685 384.297 234.288 379.642 234.861C374.989 235.442 371.196 235.775 371.206 235.96Z" fill="#E0E0E0"/>
<path d="M374.301 235.868C374.219 235.85 373.973 236.533 373.778 237.688C373.682 238.266 373.602 238.954 373.572 239.737C373.565 240.131 373.574 240.588 373.786 241.046C373.998 241.516 374.484 241.902 375.082 241.915C375.383 241.921 375.716 241.776 375.902 241.539C376.101 241.303 376.173 241.018 376.191 240.776C376.226 240.279 376.102 239.868 376.013 239.496C375.819 238.739 375.572 238.08 375.329 237.545C374.838 236.474 374.382 235.901 374.312 235.943C374.228 235.99 374.537 236.636 374.905 237.713C375.087 238.252 375.28 238.9 375.435 239.632C375.51 240.002 375.598 240.381 375.562 240.719C375.531 241.062 375.356 241.271 375.084 241.27C374.409 241.254 374.138 240.463 374.166 239.74C374.162 238.995 374.194 238.31 374.23 237.741C374.307 236.598 374.392 235.887 374.301 235.868Z" fill="#E0E0E0"/>
<path d="M331.205 178.842L371.371 174.151C376.633 173.536 380.401 168.772 379.787 163.509L378.917 156.058C378.302 150.795 373.538 147.028 368.276 147.642L328.11 152.333C322.848 152.948 319.08 157.712 319.694 162.974L320.564 170.425C321.178 175.689 325.942 179.457 331.205 178.842Z" fill="#455A64"/>
<path d="M367.613 148.273C367.619 148.254 367.491 148.189 367.23 148.107C366.97 148.026 366.57 147.945 366.048 147.93C365.017 147.896 363.436 148.22 361.934 149.357C360.47 150.457 358.773 152.024 357.793 154.33C356.773 156.59 356.439 159.361 356.654 162.165C356.818 165.003 357.844 167.65 359.358 169.602C360.865 171.575 362.842 172.811 364.607 173.381C366.38 173.969 367.924 173.994 368.944 173.857C369.458 173.799 369.849 173.702 370.108 173.623C370.367 173.542 370.499 173.49 370.494 173.468C370.481 173.412 369.93 173.553 368.923 173.607C367.923 173.665 366.44 173.569 364.759 172.951C363.082 172.348 361.241 171.139 359.832 169.243C358.417 167.361 357.457 164.849 357.298 162.119C357.089 159.383 357.396 156.735 358.338 154.567C359.227 152.38 360.821 150.836 362.207 149.723C363.603 148.595 365.063 148.228 366.051 148.182C367.053 148.138 367.599 148.334 367.613 148.273Z" fill="#263238"/>
<path d="M344.655 150.303L350.849 149.69C349.202 150.145 347.809 151.318 346.874 152.749C345.939 154.179 345.432 155.854 345.17 157.542C344.061 164.667 347.848 172.334 353.944 176.187L348.96 176.852C348.96 176.852 334.659 164.075 344.655 150.303Z" fill="#263238"/>
<path d="M337.627 163.417C340.807 164.294 344.384 163.582 346.985 161.555C349.587 159.527 351.15 156.232 351.076 152.935C351.006 149.856 349.614 146.718 350.571 143.79C351.228 141.78 352.913 140.213 353.478 138.175C354.321 135.133 352.482 132.058 350.725 129.435C349.598 127.752 348.447 126.043 346.877 124.764C345.306 123.486 343.224 122.679 341.243 123.099" fill="#263238"/>
<path d="M309.233 123.37C309.404 125.694 307.869 127.771 306.323 129.514C304.776 131.258 303.056 133.075 302.721 135.382C302.129 139.47 306.131 143.265 305.305 147.312C304.863 149.481 303.087 151.223 302.77 153.414C302.464 155.533 303.6 157.607 305.007 159.221C306.415 160.834 308.13 162.179 309.375 163.921C310.687 165.756 311.408 167.934 312.35 169.984C313.292 172.034 314.559 174.068 316.542 175.144C319.523 176.761 323.698 176 325.984 178.506C328.193 180.927 330.9 181.31 333.622 183.136" fill="#263238"/>
<path d="M344.958 126.924C345.018 124.816 343.069 123.187 341.106 122.415C339.144 121.643 336.963 121.352 335.213 120.174C333.664 119.131 332.623 117.505 331.312 116.176C328.095 112.915 323.073 111.563 318.654 112.769C314.235 113.974 310.595 117.689 309.48 122.132C308.726 125.134 309.241 128.684 311.607 130.679C314.354 132.994 318.425 132.48 321.945 131.76C325.464 131.04 329.447 130.329 332.386 132.396C334.158 133.642 335.174 135.67 336.257 137.546C337.34 139.422 338.7 141.338 340.748 142.043C342.796 142.748 345.578 141.53 345.658 139.365" fill="#263238"/>
<path d="M336.645 127.357C338.466 127.554 339.833 129.111 339.793 130.942L337.688 178.58C337.6 184.206 329.376 187.368 323.352 187.227C317.269 187.085 317.073 184.102 316.997 178.749C316.87 169.806 316.881 166.449 316.877 166.5C316.877 166.5 309.193 165.207 307.623 155.174C306.842 150.185 307.111 142.008 307.547 135.324C307.94 129.308 311.942 121.935 317.936 122.582L336.645 127.357Z" fill="#FFBE9D"/>
<path d="M309.448 141.057C309.422 141.736 309.977 142.318 310.685 142.357C311.392 142.397 311.988 141.88 312.013 141.2C312.038 140.521 311.484 139.938 310.777 139.899C310.069 139.86 309.473 140.378 309.448 141.057Z" fill="#263238"/>
<path d="M309.312 139.584C309.471 139.752 310.447 139.033 311.831 139.04C313.214 139.027 314.228 139.741 314.378 139.572C314.452 139.497 314.29 139.194 313.848 138.871C313.413 138.549 312.672 138.236 311.809 138.238C310.947 138.241 310.221 138.557 309.803 138.881C309.378 139.206 309.233 139.509 309.312 139.584Z" fill="#263238"/>
<path d="M323.228 141.412C323.202 142.091 323.757 142.673 324.465 142.713C325.172 142.752 325.768 142.236 325.793 141.556C325.819 140.877 325.264 140.294 324.557 140.255C323.849 140.215 323.253 140.733 323.228 141.412Z" fill="#263238"/>
<path d="M322.916 139.872C323.075 140.04 324.053 139.321 325.436 139.328C326.818 139.315 327.833 140.029 327.983 139.86C328.057 139.785 327.897 139.482 327.453 139.159C327.018 138.837 326.277 138.524 325.414 138.525C324.552 138.528 323.826 138.844 323.408 139.168C322.984 139.494 322.838 139.797 322.916 139.872Z" fill="#263238"/>
<path d="M317.87 150.125C317.877 150.046 317.017 149.896 315.623 149.714C315.27 149.677 314.935 149.606 314.876 149.365C314.793 149.109 314.942 148.729 315.114 148.318C315.448 147.463 315.798 146.568 316.165 145.629C317.625 141.801 318.683 138.652 318.528 138.595C318.373 138.538 317.064 141.594 315.605 145.422C315.254 146.366 314.917 147.266 314.598 148.127C314.463 148.528 314.232 148.983 314.412 149.514C314.507 149.778 314.766 149.97 314.992 150.032C315.218 150.102 315.417 150.106 315.592 150.117C316.994 150.196 317.865 150.204 317.87 150.125Z" fill="#263238"/>
<path d="M316.878 166.502C316.878 166.502 323.624 166.952 330.317 162.949C330.317 162.949 327.043 169.831 317.008 168.87L316.878 166.502Z" fill="#EB996E"/>
<path d="M318.448 153.462C318.947 152.805 319.82 152.446 320.686 152.541C321.287 152.607 321.893 152.898 322.256 153.388C322.62 153.878 322.695 154.572 322.362 155.038C321.987 155.563 321.207 155.682 320.547 155.493C319.887 155.304 319.319 154.868 318.78 154.433C318.631 154.313 318.479 154.187 318.386 154.023C318.293 153.859 318.274 153.644 318.389 153.508" fill="#EB996E"/>
<path d="M321.941 151.092C321.716 151.078 321.71 152.581 320.421 153.644C319.135 154.711 317.534 154.539 317.522 154.749C317.501 154.843 317.878 155.042 318.554 155.061C319.217 155.085 320.186 154.874 320.974 154.224C321.76 153.572 322.099 152.7 322.152 152.084C322.211 151.456 322.044 151.083 321.941 151.092Z" fill="#263238"/>
<path d="M322.299 137.448C322.435 137.824 323.817 137.649 325.44 137.849C327.068 138.016 328.376 138.494 328.592 138.157C328.688 137.996 328.461 137.641 327.932 137.276C327.408 136.911 326.571 136.564 325.597 136.453C324.622 136.344 323.73 136.497 323.137 136.736C322.541 136.974 322.24 137.269 322.299 137.448Z" fill="#263238"/>
<path d="M309.829 135.579C310.072 135.894 311.026 135.57 312.173 135.557C313.319 135.504 314.29 135.773 314.514 135.445C314.612 135.285 314.46 134.97 314.036 134.672C313.619 134.374 312.92 134.131 312.132 134.153C311.344 134.176 310.661 134.46 310.261 134.781C309.856 135.102 309.723 135.426 309.829 135.579Z" fill="#263238"/>
<path d="M343.648 160.353C340.89 160.909 337.886 160.061 335.825 158.146C333.764 156.231 332.7 153.296 333.053 150.505C333.365 148.042 334.693 145.536 333.839 143.205C332.71 140.123 328.389 139.174 327.243 136.098C326.577 134.31 327.175 132.219 326.419 130.467C325.709 128.82 323.975 127.871 322.288 127.261C320.601 126.651 318.792 126.23 317.376 125.129C315.96 124.028 315.076 121.95 315.99 120.406C323.472 121.303 330.846 123.094 337.905 125.731C339.542 126.342 341.261 127.077 342.229 128.532C343.253 130.071 343.204 132.06 343.118 133.907C342.698 142.912 342.278 151.917 341.857 160.923" fill="#263238"/>
<path d="M349.055 168.688C348.976 168.7 349.19 167.72 348.534 166.19C348.213 165.433 347.646 164.578 346.823 163.746C346.001 162.909 344.892 162.147 343.58 161.45C342.275 160.739 340.766 160.094 339.224 159.21C337.694 158.328 336.111 157.125 335.074 155.348C334.558 154.469 334.236 153.419 334.234 152.338C334.229 151.259 334.473 150.205 334.686 149.157C334.893 148.114 335.104 147.035 334.894 146.008C334.713 144.971 333.995 144.112 333.042 143.572C332.096 143.009 331.014 142.664 329.991 142.183C328.978 141.709 327.953 141.035 327.397 140.014C326.833 139.011 326.684 137.888 326.644 136.845C326.607 135.792 326.674 134.779 326.661 133.802C326.651 132.827 326.567 131.878 326.259 131.035C325.957 130.191 325.425 129.478 324.738 128.979C323.36 127.964 321.729 127.607 320.291 127.236C318.842 126.875 317.507 126.444 316.507 125.735C315.492 125.033 314.935 124.067 314.703 123.249C314.467 122.417 314.579 121.722 314.738 121.307C314.909 120.889 315.084 120.723 315.084 120.723C315.109 120.738 314.97 120.929 314.838 121.341C314.718 121.751 314.645 122.41 314.898 123.191C315.147 123.961 315.702 124.859 316.672 125.495C317.639 126.148 318.931 126.542 320.38 126.879C321.816 127.23 323.5 127.56 324.997 128.634C325.744 129.162 326.354 129.958 326.689 130.878C327.033 131.797 327.124 132.8 327.141 133.797C327.16 134.797 327.099 135.811 327.141 136.828C327.183 137.84 327.337 138.876 327.839 139.761C328.33 140.658 329.231 141.256 330.211 141.716C331.198 142.181 332.286 142.522 333.309 143.127C333.816 143.429 334.296 143.806 334.671 144.283C335.048 144.758 335.285 145.33 335.402 145.907C335.633 147.079 335.394 148.209 335.186 149.261C334.967 150.316 334.731 151.339 334.732 152.337C334.73 153.329 335.015 154.285 335.492 155.113C336.45 156.783 337.958 157.965 339.443 158.84C340.944 159.723 342.447 160.39 343.758 161.13C345.074 161.855 346.207 162.663 347.033 163.545C347.861 164.422 348.42 165.321 348.723 166.115C349.036 166.907 349.115 167.574 349.115 168.017C349.127 168.239 349.1 168.408 349.09 168.521C349.075 168.631 349.064 168.689 349.055 168.688Z" fill="#263238"/>
<path d="M319.822 175.569C319.826 175.587 319.657 175.636 319.328 175.716C319.164 175.762 318.958 175.797 318.711 175.821C318.465 175.858 318.18 175.882 317.857 175.878C316.58 175.91 314.637 175.572 312.702 174.259C311.75 173.6 310.794 172.705 310.1 171.51C309.375 170.324 309.026 168.869 308.762 167.388C308.485 165.911 308.25 164.332 307.462 162.955C306.681 161.57 305.227 160.647 303.919 159.464C302.558 158.3 301.687 156.62 301.462 154.943C301.218 153.261 301.592 151.561 302.389 150.232C303.161 148.903 304.073 147.797 304.485 146.554C304.92 145.323 304.994 144.077 304.911 142.961C304.708 140.718 304.056 138.967 303.643 137.772C303.21 136.575 302.954 135.917 302.991 135.901C303.007 135.894 303.092 136.05 303.237 136.353C303.382 136.657 303.588 137.108 303.832 137.699C304.304 138.88 305.019 140.621 305.277 142.929C305.387 144.077 305.335 145.385 304.892 146.696C304.467 148.029 303.531 149.188 302.807 150.468C302.064 151.736 301.737 153.295 301.967 154.872C302.194 156.447 302.976 157.97 304.27 159.081C305.519 160.221 307.043 161.179 307.903 162.701C308.749 164.202 308.968 165.835 309.234 167.304C309.484 168.784 309.806 170.168 310.473 171.294C311.113 172.435 312.012 173.307 312.914 173.959C314.748 175.26 316.616 175.647 317.861 175.677C319.121 175.711 319.812 175.51 319.822 175.569Z" fill="#263238"/>
<path d="M348.948 127.767C348.948 127.767 349.065 127.883 349.115 128.177C349.174 128.465 349.092 128.944 348.728 129.382C348.374 129.811 347.762 130.243 346.933 130.29C346.108 130.31 345.255 129.949 344.391 129.529C343.528 129.094 342.578 128.71 341.465 128.665C340.362 128.596 339.172 128.765 337.924 128.987C336.675 129.205 335.348 129.492 333.92 129.503C332.512 129.522 330.925 129.099 329.813 128.004C328.688 126.937 328.047 125.58 327.448 124.336C326.853 123.083 326.297 121.872 325.534 120.895C324.05 118.872 321.524 118.316 319.745 118.783C317.911 119.245 316.807 120.495 316.254 121.366C315.691 122.269 315.569 122.869 315.519 122.852C315.503 122.848 315.523 122.699 315.595 122.421C315.673 122.146 315.813 121.742 316.08 121.263C316.599 120.333 317.699 118.974 319.653 118.427C320.614 118.167 321.749 118.146 322.875 118.491C324.006 118.813 325.104 119.558 325.911 120.599C326.732 121.63 327.309 122.872 327.908 124.116C328.509 125.354 329.14 126.653 330.168 127.624C331.181 128.617 332.585 128.999 333.921 128.994C335.273 128.991 336.582 128.723 337.842 128.515C339.101 128.305 340.332 128.144 341.496 128.235C342.667 128.298 343.714 128.747 344.553 129.199C345.401 129.64 346.2 129.991 346.925 129.999C347.643 129.988 348.233 129.621 348.573 129.25C348.925 128.871 349.029 128.457 349.009 128.188C348.999 127.914 348.918 127.778 348.948 127.767Z" fill="#455A64"/>
<path d="M343.333 124.883C340.06 124.127 337.546 120.884 337.629 117.526C337.712 114.168 340.384 111.054 343.69 110.461C345.286 110.175 347.134 110.529 348.093 111.837C349.011 113.089 348.951 114.958 350.122 115.977C351.376 117.068 353.299 116.598 354.923 116.949C357.439 117.492 359.122 120.25 358.836 122.808C358.55 125.366 356.587 127.551 354.205 128.526C351.823 129.502 349.101 129.392 346.629 128.674C344.157 127.956 341.893 126.667 339.705 125.31" fill="#263238"/>
<path d="M355.384 117.633C355.435 117.648 355.269 118.403 354.649 119.473C354.037 120.541 352.895 121.875 351.286 122.883C349.672 123.884 347.972 124.322 346.743 124.401C345.509 124.486 344.758 124.303 344.767 124.251C344.774 124.161 345.525 124.21 346.701 124.035C347.875 123.866 349.471 123.394 351.01 122.441C352.544 121.479 353.669 120.255 354.338 119.275C355.014 118.295 355.301 117.599 355.384 117.633Z" fill="#455A64"/>
<path d="M350.076 128.722C349.946 128.832 348.413 126.275 345.327 124.536C342.268 122.746 339.288 122.712 339.318 122.544C339.317 122.486 340.051 122.407 341.227 122.567C342.399 122.723 344.006 123.18 345.586 124.084C347.163 124.993 348.367 126.15 349.093 127.084C349.825 128.019 350.127 128.693 350.076 128.722Z" fill="#E8505B"/>
<path d="M277.211 237.633L261.043 234.486L263.96 238.637L257.015 242.102L251.218 239.388C251.218 239.388 251.64 240.658 252.908 242.776C254.176 244.894 255.868 246.589 256.968 246.674C258.615 246.802 258.908 246.825 256.968 246.674C256.968 246.674 257.323 248.643 259.115 250.554C260.184 251.694 262.995 253.49 266.42 252.576L277.308 248.642L277.211 237.633Z" fill="#FFBE9D"/>
<path d="M260.863 245.76C260.962 245.855 260.066 246.691 258.628 246.85C257.192 247.023 256.129 246.412 256.204 246.297C256.259 246.154 257.29 246.492 258.569 246.333C259.85 246.197 260.777 245.633 260.863 245.76Z" fill="#EB996E"/>
<path d="M262.976 249.214C263.078 249.306 262.384 250.09 261.18 250.399C259.977 250.718 258.989 250.372 259.033 250.242C259.061 250.093 259.982 250.182 261.048 249.895C262.119 249.626 262.879 249.098 262.976 249.214Z" fill="#EB996E"/>
<path d="M267.075 236.964C267.1 237.039 266.522 237.276 265.662 237.786C264.794 238.284 263.677 239.102 262.394 239.979C261.11 240.856 259.818 241.511 258.81 241.769C257.804 242.042 257.151 241.981 257.151 241.921C257.144 241.838 257.768 241.767 258.697 241.419C259.632 241.083 260.835 240.412 262.103 239.547C263.371 238.681 264.551 237.889 265.489 237.461C266.421 237.019 267.057 236.902 267.075 236.964Z" fill="#EB996E"/>
<path d="M365.398 264.539C365.398 264.539 365.953 264.885 367.329 267.339C371.562 274.888 373.272 292.983 357.314 309.127C336.688 329.994 312.542 364.127 312.542 364.127L293.581 444.285L264.941 438.083L279.7 354.765L320.175 279.691L365.398 264.539Z" fill="#263238"/>
<path d="M396.994 419.683L352.873 352.161L339.488 293.879L305.411 310.625L322.503 369.783L377.03 437.705L396.994 419.683Z" fill="#263238"/>
<path d="M293.581 444.285C293.572 444.283 293.595 444.149 293.647 443.889C293.707 443.606 293.789 443.225 293.892 442.74C294.125 441.705 294.458 440.225 294.884 438.334C295.774 434.485 297.051 428.963 298.627 422.151C301.842 408.474 306.273 389.625 311.167 368.804C311.551 367.181 311.932 365.571 312.288 364.067L312.301 364.012L312.336 363.968C324.842 347.977 336.227 333.824 344.612 323.773C348.809 318.752 352.237 314.741 354.667 312.031C355.864 310.66 356.84 309.64 357.486 308.936C357.8 308.603 358.047 308.342 358.232 308.146C358.402 307.97 358.492 307.883 358.498 307.889C358.504 307.895 358.427 307.994 358.269 308.181C358.093 308.385 357.859 308.658 357.56 309.005C356.938 309.73 355.987 310.771 354.813 312.161C352.43 314.909 349.045 318.954 344.886 324.002C336.576 334.108 325.241 348.296 312.745 364.288L312.793 364.188C312.438 365.692 312.057 367.302 311.673 368.925C306.721 389.731 302.237 408.569 298.984 422.237C297.341 429.033 296.009 434.542 295.08 438.382C294.613 440.264 294.248 441.736 293.993 442.766C293.868 443.246 293.77 443.623 293.698 443.903C293.629 444.158 293.59 444.288 293.581 444.285Z" fill="#455A64"/>
<path d="M345.321 285.853C345.334 285.883 345.092 286.028 344.627 286.234C344.162 286.44 343.466 286.688 342.576 286.896C340.811 287.319 338.202 287.481 335.498 286.694C332.793 285.907 330.679 284.37 329.417 283.065C328.779 282.412 328.324 281.829 328.043 281.405C327.761 280.982 327.634 280.73 327.662 280.711C327.736 280.657 328.362 281.591 329.673 282.799C330.97 284.005 333.041 285.435 335.644 286.193C338.247 286.951 340.761 286.856 342.503 286.534C344.258 286.22 345.287 285.768 345.321 285.853Z" fill="#455A64"/>
<path d="M369.646 267.949C352.394 277.036 324.376 282.468 315.424 278.779L315.11 245.534C315.11 245.534 302.835 225.297 302.789 217.647C302.723 206.62 316.451 181.476 316.451 181.476L337.058 176.013C341.907 175.992 345.83 177.102 348.988 178.78C356.925 182.997 361.252 191.861 360.358 200.804L355.168 233.874L369.646 267.949Z" fill="#E8505B"/>
<g opacity="0.3">
<path d="M347.533 178.749C348.729 178.567 349.175 180.525 348.317 181.377C347.459 182.229 346.122 182.277 344.927 182.464C339.561 183.303 335.412 187.902 333.457 192.969C331.502 198.036 331.321 203.583 331 209.005C330.679 214.427 330.148 220.01 327.6 224.807C322.859 216.401 322.119 205.847 325.642 196.862C329.165 187.877 336.879 180.638 346.071 177.694" fill="black"/>
</g>
<path d="M348.988 178.78C348.988 178.78 346.023 173.889 336.074 176.013C329.426 177.432 314.907 191.377 318.958 213.792C323.009 236.208 333.868 244.138 333.868 244.138C333.868 244.138 323.877 209.829 329.426 194.855C334.974 179.882 348.988 178.78 348.988 178.78Z" fill="#263238"/>
<g opacity="0.3">
<path d="M315.489 252.641C319.598 253.964 323.539 255.611 327.817 256.184C332.095 256.757 336.569 256.538 340.541 254.849C346.033 252.513 350.112 247.505 352.213 241.919C354.314 236.333 354.602 230.206 354.044 224.263C350.287 228.899 350.743 235.773 347.553 240.816C345.556 243.972 342.304 246.12 338.965 247.794C331.693 251.438 323.621 252.822 315.489 252.641Z" fill="black"/>
</g>
<path d="M327.847 218.675C327.847 218.675 326.509 243.915 357.3 238.891L360.402 246.192C360.402 246.192 328.028 253.029 323.439 226.223L327.847 218.675Z" fill="#263238"/>
<path d="M355.906 187.296C358.594 191.131 359.294 196.021 358.189 200.572L350.521 234.905C347.226 244.565 337.837 250.428 332.003 251.214L277.308 256.978V236.595L328.077 229.053L330.458 201.251C330.667 197.511 332.512 190.79 334.89 187.896C337.549 184.661 341.64 180.259 348.316 181.378C352.414 182.063 354.147 184.786 355.906 187.296Z" fill="#E8505B"/>
<path d="M357.493 201.91C357.511 201.912 357.49 202.179 357.436 202.685C357.383 203.191 357.291 203.935 357.162 204.893C356.903 206.807 356.495 209.574 355.892 212.976C355.293 216.378 354.497 220.416 353.473 224.869C352.955 227.094 352.409 229.427 351.745 231.83C351.073 234.227 350.26 236.698 349.064 239.076C347.879 241.456 346.31 243.597 344.44 245.282C342.581 246.977 340.505 248.278 338.42 249.248C334.237 251.211 330.096 251.93 326.667 252.301C323.22 252.654 320.419 252.674 318.489 252.693C317.563 252.689 316.823 252.685 316.265 252.683C315.757 252.673 315.49 252.66 315.489 252.642C315.489 252.624 315.755 252.603 316.263 252.578C316.82 252.556 317.559 252.527 318.484 252.491C320.411 252.409 323.206 252.333 326.626 251.935C330.029 251.52 334.114 250.768 338.215 248.814C340.26 247.849 342.286 246.565 344.096 244.906C345.915 243.256 347.436 241.177 348.6 238.841C349.774 236.508 350.581 234.07 351.255 231.691C351.922 229.308 352.478 226.976 353.007 224.759C354.054 220.32 354.886 216.297 355.531 212.908C356.179 209.52 356.642 206.765 356.962 204.862C357.116 203.949 357.24 203.22 357.333 202.67C357.421 202.169 357.476 201.907 357.493 201.91Z" fill="#263238"/>
<path d="M329.552 234.904C329.415 234.948 328.863 233.619 328.319 231.935C327.775 230.25 327.444 228.849 327.581 228.805C327.718 228.761 328.27 230.09 328.814 231.775C329.359 233.459 329.689 234.86 329.552 234.904Z" fill="#263238"/>
<path d="M332.661 234.122C332.582 234.234 331.221 233.382 329.87 231.953C328.512 230.529 327.731 229.127 327.847 229.054C327.972 228.97 328.925 230.209 330.247 231.594C331.563 232.986 332.751 234.002 332.661 234.122Z" fill="#263238"/>
<path d="M282.07 235.886C282.069 235.878 282.146 235.858 282.298 235.827C282.479 235.794 282.702 235.753 282.976 235.702C283.613 235.596 284.488 235.451 285.598 235.266C287.924 234.901 291.23 234.383 295.325 233.741C303.619 232.487 315.101 230.751 328.038 228.796L327.819 229.026C328 227.131 328.191 225.126 328.385 223.094C329.044 215.877 329.734 209.013 330.073 202.742C330.327 199.592 330.92 196.635 331.773 193.957C332.628 191.289 333.748 188.855 335.348 187.033C338.592 183.502 342.218 181.629 344.889 181.292C346.22 181.097 347.267 181.232 347.957 181.347C348.3 181.422 348.557 181.501 348.73 181.548C348.903 181.597 348.99 181.627 348.987 181.635C348.983 181.738 347.544 181.087 344.92 181.493C342.319 181.88 338.78 183.774 335.625 187.276C334.097 189.049 333.009 191.449 332.185 194.087C331.361 196.734 330.789 199.668 330.552 202.777C330.239 209.048 329.562 215.927 328.904 223.142C328.709 225.174 328.516 227.18 328.334 229.075L328.315 229.276L328.115 229.305C315.168 231.194 303.677 232.871 295.377 234.082C291.272 234.658 287.958 235.123 285.627 235.45C284.511 235.596 283.631 235.711 282.991 235.795C282.714 235.826 282.488 235.852 282.306 235.872C282.151 235.891 282.071 235.894 282.07 235.886Z" fill="#263238"/>
<path d="M313.373 252.524C313.23 252.538 312.65 247.913 312.078 242.195C311.506 236.475 311.159 231.828 311.302 231.813C311.445 231.799 312.025 236.423 312.597 242.143C313.169 247.861 313.516 252.51 313.373 252.524Z" fill="#FAFAFA"/>
<path d="M353.406 221.525C353.405 221.597 352.077 221.612 349.93 221.579C347.783 221.546 344.817 221.464 341.542 221.341C338.266 221.218 335.302 221.078 333.159 220.95C331.016 220.822 329.693 220.708 329.697 220.636C329.701 220.564 331.032 220.549 333.179 220.582C335.326 220.615 338.29 220.697 341.562 220.82C344.834 220.943 347.795 221.083 349.938 221.21C352.081 221.337 353.407 221.453 353.406 221.525Z" fill="#FAFAFA"/>
<path d="M318.69 215.028C318.695 215.097 317.83 215.224 316.424 215.326C315.018 215.429 313.069 215.497 310.917 215.456C308.765 215.413 306.82 215.268 305.419 215.11C304.018 214.952 303.159 214.792 303.166 214.723C303.174 214.649 304.045 214.68 305.447 214.743C306.85 214.807 308.786 214.893 310.927 214.936C313.067 214.977 315.005 214.968 316.409 214.959C317.814 214.95 318.685 214.953 318.69 215.028Z" fill="#FAFAFA"/>
<path d="M323.209 191.279C323.133 191.413 321.032 190.31 318.306 189.283C315.584 188.243 313.281 187.674 313.313 187.524C313.335 187.392 315.723 187.74 318.491 188.797C321.263 189.841 323.281 191.165 323.209 191.279Z" fill="#FAFAFA"/>
<path d="M362.928 253.674C362.934 253.691 362.78 253.767 362.481 253.896C362.124 254.043 361.689 254.222 361.163 254.439C360.016 254.906 358.337 255.532 356.247 256.261C352.068 257.724 346.209 259.517 339.62 261.03C333.027 262.536 326.971 263.47 322.572 263.972C320.373 264.225 318.589 264.391 317.353 264.47C316.785 264.504 316.316 264.532 315.93 264.555C315.604 264.569 315.433 264.567 315.431 264.549C315.43 264.531 315.598 264.498 315.921 264.45C316.304 264.401 316.77 264.341 317.334 264.268C318.562 264.127 320.337 263.905 322.526 263.606C326.904 263.012 332.931 262.023 339.504 260.522C346.073 259.014 351.929 257.282 356.13 255.912C358.231 255.229 359.926 254.656 361.093 254.249C361.632 254.069 362.078 253.92 362.444 253.798C362.755 253.7 362.922 253.657 362.928 253.674Z" fill="#FAFAFA"/>
<path d="M359.667 193.866C359.662 194.01 353.767 193.936 346.501 193.701C339.233 193.466 333.346 193.159 333.351 193.016C333.356 192.872 339.25 192.946 346.518 193.181C353.784 193.416 359.672 193.723 359.667 193.866Z" fill="#FAFAFA"/>
<path d="M289.204 255.491C289.06 255.497 288.772 251.029 288.56 245.515C288.348 239.998 288.293 235.523 288.437 235.518C288.581 235.513 288.869 239.979 289.081 245.495C289.293 251.01 289.348 255.486 289.204 255.491Z" fill="#FAFAFA"/>
<path d="M177.331 153.222C186.167 151.553 195.485 152.525 203.786 155.981C207.501 157.528 211.176 159.718 213.184 163.205C215.558 167.33 215.167 172.41 214.911 177.163C214.39 186.83 214.728 196.542 215.918 206.15C216.908 214.148 218.491 222.112 218.464 230.171C218.437 238.23 216.634 246.588 211.581 252.866C203.793 262.544 189.916 265.256 177.602 263.613C171.12 262.748 164.648 260.807 159.365 256.953C154.082 253.099 150.106 247.143 149.656 240.619" fill="#455A64"/>
<path d="M192.749 165.481C192.657 165.559 194.264 166.943 195.67 169.951C196.385 171.441 197.031 173.305 197.651 175.416C198.286 177.521 198.914 179.885 199.963 182.248C201.016 184.603 202.48 186.688 204.275 188.09C206.048 189.524 208.147 190.121 209.855 190.08C211.579 190.064 212.92 189.511 213.695 188.966C214.092 188.703 214.365 188.449 214.53 188.262C214.697 188.076 214.775 187.972 214.759 187.957C214.716 187.912 214.355 188.293 213.561 188.747C212.777 189.203 211.487 189.655 209.86 189.613C208.238 189.589 206.315 188.995 204.655 187.614C202.98 186.265 201.588 184.264 200.567 181.978C199.546 179.681 198.903 177.343 198.234 175.238C197.579 173.127 196.874 171.239 196.09 169.744C195.315 168.244 194.488 167.138 193.845 166.45C193.2 165.758 192.774 165.453 192.749 165.481Z" fill="#263238"/>
<path d="M196.279 262.995C196.302 262.998 196.353 262.726 196.429 262.207C196.507 261.618 196.608 260.864 196.732 259.932C196.983 257.955 197.31 255.091 197.685 251.548C198.437 244.463 199.344 234.661 200.115 223.816C200.883 212.968 201.37 203.135 201.627 196.014C201.756 192.454 201.837 189.572 201.868 187.58C201.877 186.641 201.884 185.88 201.89 185.286C201.888 184.761 201.875 184.485 201.853 184.485C201.83 184.484 201.798 184.759 201.757 185.282C201.719 185.875 201.671 186.634 201.611 187.571C201.5 189.644 201.347 192.5 201.161 195.994C200.785 203.106 200.225 212.928 199.457 223.77C198.686 234.607 197.853 244.409 197.221 251.503C196.912 254.988 196.66 257.837 196.477 259.905C196.403 260.841 196.344 261.6 196.298 262.192C196.263 262.716 196.256 262.992 196.279 262.995Z" fill="#263238"/>
<path d="M200.227 219.569C200.208 219.743 204.091 220.28 208.918 220.401C213.746 220.531 217.65 220.196 217.641 220.021C217.633 219.832 213.736 219.87 208.935 219.74C204.136 219.621 200.245 219.38 200.227 219.569Z" fill="#263238"/>
<path d="M203.375 219.947C203.294 219.916 202.942 220.571 202.569 221.71C202.384 222.281 202.197 222.965 202.049 223.753C201.981 224.151 201.922 224.615 202.067 225.111C202.21 225.619 202.644 226.084 203.247 226.188C203.55 226.24 203.91 226.143 204.134 225.932C204.371 225.723 204.487 225.446 204.543 225.203C204.654 224.705 204.591 224.27 204.558 223.88C204.477 223.085 204.327 222.379 204.162 221.801C203.828 220.642 203.453 219.993 203.377 220.024C203.284 220.059 203.499 220.76 203.707 221.907C203.809 222.48 203.906 223.166 203.951 223.93C203.971 224.316 204.002 224.713 203.914 225.05C203.831 225.393 203.622 225.577 203.346 225.535C202.665 225.416 202.511 224.573 202.65 223.846C202.759 223.091 202.896 222.402 203.02 221.831C203.27 220.687 203.465 219.98 203.375 219.947Z" fill="#263238"/>
<path d="M168.197 155.641L210.035 157.023C215.33 157.198 219.765 153.047 219.94 147.752L220.209 139.618C220.384 134.323 216.233 129.888 210.938 129.713L169.1 128.331C163.805 128.156 159.37 132.307 159.195 137.602L158.926 145.736C158.751 151.031 162.902 155.466 168.197 155.641Z" fill="#263238"/>
<path d="M209.943 130.242C209.952 130.224 209.832 130.138 209.581 130.016C209.33 129.895 208.938 129.752 208.411 129.657C207.372 129.466 205.722 129.553 204.028 130.475C202.378 131.365 200.422 132.693 199.078 134.879C197.701 137.012 196.94 139.767 196.732 142.638C196.466 145.536 197.101 148.372 198.337 150.579C199.562 152.807 201.376 154.359 203.076 155.204C204.782 156.07 206.341 156.329 207.394 156.346C207.923 156.365 208.334 156.327 208.608 156.286C208.883 156.244 209.024 156.211 209.022 156.188C209.017 156.129 208.438 156.188 207.41 156.089C206.389 155.995 204.902 155.672 203.294 154.791C201.688 153.925 200.008 152.421 198.87 150.287C197.723 148.167 197.135 145.477 197.39 142.689C197.595 139.886 198.309 137.253 199.594 135.201C200.827 133.123 202.676 131.801 204.248 130.886C205.833 129.957 207.368 129.808 208.375 129.911C209.396 130.02 209.919 130.302 209.943 130.242Z" fill="#455A64"/>
<path d="M186.39 128.801L192.754 129.124C191.017 129.334 189.428 130.309 188.264 131.615C187.1 132.921 186.332 134.539 185.808 136.209C183.6 143.254 186.267 151.593 191.852 156.422L186.705 156.336C186.705 156.336 174.171 141.223 186.39 128.801Z" fill="#455A64"/>
<path d="M155.305 116.818C152.707 110.535 152.57 99.605 156.543 93.859C160.516 88.113 167.951 84.319 174.781 82.851C175.922 82.606 177.151 82.441 178.227 82.894C179.303 83.348 180.106 84.632 179.645 85.705C181.017 84.848 182.422 83.977 183.999 83.615C185.576 83.253 187.384 83.487 188.544 84.615C189.704 85.743 189.886 87.874 188.657 88.926C190.562 88.231 192.857 88.771 194.252 90.243C195.647 91.715 196.063 94.035 195.266 95.9C194.503 97.686 192.881 99.681 191.45 100.993C190.018 102.305 189.782 103.667 190.018 105.595" fill="#263238"/>
<path d="M156.944 105.293L155.136 143.768C154.829 150.311 160.059 155.78 166.609 155.764C172.722 155.749 177.747 150.932 178.027 144.826C178.16 141.93 178.277 139.515 178.31 139.218C178.31 139.218 188.148 138.757 189.311 129.096C189.873 124.427 190.247 114.717 190.484 105.928C190.739 96.489 183.69 88.441 174.303 87.429L173.37 87.328C163.242 86.831 157.161 95.155 156.944 105.293Z" fill="#FFBE9D"/>
<path d="M178.341 139.08C178.341 139.08 172.174 138.918 166.116 134.135C166.116 134.135 168.045 140.188 177.792 140.358L178.341 139.08Z" fill="#EB996E"/>
<path d="M186.967 112.104C186.914 112.836 186.251 113.395 185.485 113.354C184.721 113.313 184.142 112.687 184.195 111.955C184.248 111.223 184.912 110.663 185.676 110.704C186.442 110.744 187.02 111.371 186.967 112.104Z" fill="#263238"/>
<path d="M187.894 110.452C187.703 110.613 186.74 109.726 185.253 109.57C183.77 109.392 182.596 110.04 182.455 109.84C182.384 109.751 182.594 109.444 183.106 109.15C183.611 108.856 184.445 108.607 185.37 108.711C186.295 108.816 187.038 109.241 187.448 109.638C187.868 110.038 187.987 110.38 187.894 110.452Z" fill="#263238"/>
<path d="M172.333 111.036C172.28 111.768 171.616 112.327 170.851 112.286C170.087 112.245 169.508 111.619 169.561 110.887C169.614 110.155 170.278 109.595 171.042 109.636C171.807 109.677 172.385 110.304 172.333 111.036Z" fill="#263238"/>
<path d="M173.251 109.153C173.06 109.315 172.095 108.427 170.61 108.271C169.127 108.093 167.953 108.74 167.812 108.541C167.742 108.452 167.949 108.146 168.464 107.851C168.969 107.557 169.802 107.308 170.728 107.411C171.654 107.516 172.396 107.941 172.806 108.338C173.223 108.739 173.344 109.081 173.251 109.153Z" fill="#263238"/>
<path d="M177.458 120.76C177.46 120.675 178.401 120.615 179.919 120.585C180.303 120.587 180.67 120.55 180.762 120.298C180.881 120.033 180.766 119.607 180.63 119.145C180.372 118.188 180.102 117.185 179.819 116.133C178.704 111.849 177.94 108.344 178.113 108.3C178.286 108.257 179.33 111.694 180.445 115.977C180.711 117.032 180.966 118.038 181.207 119.001C181.304 119.448 181.498 119.964 181.243 120.512C181.11 120.785 180.809 120.96 180.559 121C180.308 121.048 180.094 121.029 179.905 121.02C178.39 120.939 177.454 120.845 177.458 120.76Z" fill="#263238"/>
<path d="M172.972 121.316C173.215 121.328 173.044 122.942 174.302 124.236C175.557 125.534 177.296 125.538 177.285 125.765C177.297 125.869 176.868 126.037 176.14 125.979C175.425 125.927 174.41 125.586 173.64 124.794C172.873 124.001 172.612 123.024 172.628 122.356C172.639 121.675 172.862 121.295 172.972 121.316Z" fill="#263238"/>
<path d="M174.264 103.368C174.074 103.756 172.61 103.405 170.843 103.427C169.075 103.414 167.614 103.773 167.422 103.385C167.337 103.2 167.624 102.847 168.235 102.517C168.841 102.187 169.78 101.913 170.84 101.909C171.899 101.908 172.84 102.177 173.448 102.504C174.059 102.831 174.347 103.184 174.264 103.368Z" fill="#263238"/>
<path d="M187.811 106.09C187.513 106.4 186.527 105.939 185.297 105.789C184.073 105.597 182.998 105.771 182.796 105.392C182.709 105.209 182.91 104.889 183.4 104.618C183.883 104.348 184.662 104.169 185.506 104.285C186.349 104.403 187.05 104.788 187.441 105.18C187.839 105.575 187.945 105.938 187.811 106.09Z" fill="#263238"/>
<path d="M156.961 112.541C156.804 112.452 150.526 109.858 150.024 116.495C149.522 123.131 156.288 122.266 156.314 122.077C156.34 121.887 156.961 112.541 156.961 112.541Z" fill="#FFBE9D"/>
<path d="M154.478 119.409C154.45 119.386 154.356 119.481 154.154 119.556C153.957 119.629 153.625 119.664 153.288 119.508C152.606 119.198 152.1 118.04 152.158 116.841C152.187 116.236 152.357 115.67 152.607 115.21C152.846 114.74 153.186 114.424 153.544 114.388C153.901 114.333 154.135 114.564 154.202 114.756C154.277 114.948 154.225 115.077 154.259 115.092C154.276 115.11 154.41 114.992 154.377 114.713C154.36 114.579 154.294 114.417 154.147 114.277C153.998 114.135 153.768 114.052 153.52 114.06C153.006 114.057 152.509 114.493 152.234 114.998C151.931 115.503 151.726 116.138 151.693 116.817C151.634 118.157 152.224 119.461 153.163 119.81C153.621 119.967 154.021 119.856 154.234 119.714C154.454 119.569 154.5 119.423 154.478 119.409Z" fill="#EB996E"/>
<path d="M195.675 93.728C195.793 102.391 184.922 105.172 180.639 100.006C178.659 97.617 176.995 94.693 174.144 93.467C172.225 92.642 169.973 92.833 168.046 93.641C168.027 93.649 168.008 93.657 167.988 93.665C165.146 94.877 163.289 97.92 162.632 100.938C161.716 105.147 162.11 108.951 160.707 112.772C160.506 113.321 160.272 113.91 159.773 114.215C158.926 114.732 157.805 114.136 157.2 113.349C156.231 112.089 155.982 110.429 155.871 108.843C155.618 105.231 155.924 101.549 157.092 98.122C158.26 94.695 160.32 91.529 163.191 89.322C166.778 86.564 171.51 85.443 176.001 85.998C180.492 86.552 184.719 88.717 188.017 91.815C189.547 93.252 190.918 94.938 191.574 96.932" fill="#263238"/>
<path d="M189.01 88.458C189.01 88.439 189.346 88.404 189.925 88.567C190.499 88.726 191.303 89.146 192.024 89.955C192.734 90.758 193.354 91.971 193.415 93.423C193.477 94.875 192.876 96.445 191.812 97.698C190.743 98.955 189.354 99.797 188.007 100.224C186.66 100.665 185.38 100.763 184.326 100.751C183.268 100.729 182.423 100.602 181.847 100.485C181.271 100.368 180.962 100.265 180.968 100.234C180.982 100.141 182.258 100.426 184.323 100.39C185.35 100.357 186.581 100.223 187.855 99.778C189.127 99.349 190.419 98.545 191.421 97.368C192.414 96.197 192.976 94.754 192.944 93.436C192.914 92.113 192.377 90.967 191.748 90.188C191.109 89.404 190.387 88.962 189.859 88.754C189.329 88.543 189.003 88.509 189.01 88.458Z" fill="#455A64"/>
<path d="M184.802 85.08C184.802 85.054 185.051 85.025 185.426 85.24C185.789 85.453 186.235 85.962 186.352 86.736C186.469 87.513 186.165 88.42 185.652 89.238C185.138 90.056 184.475 90.897 183.641 91.638C181.982 93.141 180.073 93.959 178.665 94.283C177.25 94.63 176.339 94.546 176.341 94.498C176.333 94.406 177.223 94.36 178.569 93.935C179.912 93.533 181.71 92.697 183.298 91.259C184.097 90.551 184.742 89.754 185.254 88.988C185.761 88.226 186.05 87.439 185.994 86.778C185.938 86.116 185.598 85.637 185.312 85.404C185.017 85.165 184.792 85.122 184.802 85.08Z" fill="#455A64"/>
<path d="M156.678 179.57L159.795 156.83L115.098 165.803L74.429 151.703L63.444 162.992L106.723 185.282C110.582 187.125 114.931 187.68 119.129 186.864L156.678 179.57Z" fill="#FFBE9D"/>
<path d="M74.428 151.704C74.428 151.704 58.876 144.264 57.881 144.015C57.114 143.823 45.368 143.199 40.019 142.922C37.896 142.812 37.581 145.965 39.688 146.251C39.753 146.26 39.82 146.267 39.889 146.273C42.875 146.522 49.45 148.017 49.45 148.017L46.464 155.011C46.158 155.727 46.384 156.559 47.01 157.022L56.059 163.714C58.473 164.808 61.287 164.534 63.443 162.993L67.432 163.81L74.428 151.704Z" fill="#FFBE9D"/>
<path d="M46.419 155.419C46.705 156.729 49.824 159.403 52.19 159.396C52.708 159.395 53.243 159.244 53.617 158.886C53.991 158.528 54.164 157.939 53.949 157.469C53.808 157.161 53.531 156.941 53.264 156.733C51.498 155.362 49.733 153.99 47.967 152.619" fill="#FFBE9D"/>
<path d="M47.966 152.619C48.01 152.562 48.852 153.134 50.178 154.104C50.884 154.63 51.658 155.208 52.49 155.829C52.925 156.174 53.369 156.463 53.854 156.904C54.09 157.127 54.3 157.492 54.3 157.871C54.312 158.246 54.179 158.606 53.954 158.9C53.474 159.492 52.732 159.672 52.105 159.646C51.467 159.627 50.885 159.454 50.37 159.234C49.337 158.791 48.52 158.197 47.901 157.635C47.281 157.072 46.856 156.533 46.63 156.117C46.399 155.699 46.39 155.419 46.419 155.418C46.462 155.409 46.534 155.649 46.802 156.008C47.066 156.368 47.515 156.848 48.141 157.355C48.765 157.86 49.576 158.399 50.55 158.789C51.035 158.983 51.57 159.127 52.116 159.136C52.648 159.157 53.225 158.983 53.544 158.58C53.867 158.158 53.873 157.602 53.491 157.261C53.107 156.902 52.605 156.546 52.197 156.208C51.389 155.555 50.638 154.948 49.953 154.395C48.685 153.35 47.922 152.676 47.966 152.619Z" fill="#EB996E"/>
<path d="M58.983 159.456C58.937 159.498 58.634 159.279 58.307 158.779C57.98 158.285 57.67 157.49 57.626 156.574C57.585 155.657 57.821 154.837 58.102 154.315C58.382 153.788 58.663 153.541 58.713 153.579C58.845 153.657 58.048 154.865 58.146 156.55C58.203 158.236 59.107 159.367 58.983 159.456Z" fill="#EB996E"/>
<path d="M52.764 155.865C53.236 156.599 54.213 156.964 55.05 156.719C55.887 156.474 56.514 155.64 56.516 154.768C56.519 153.627 55.606 152.72 54.759 151.956C53.461 150.785 52.163 149.613 50.865 148.442" fill="#FFBE9D"/>
<path d="M50.866 148.443C50.914 148.39 51.534 148.862 52.498 149.668C53.027 150.122 53.585 150.6 54.173 151.104C54.784 151.66 55.521 152.214 56.136 153.026C56.435 153.432 56.675 153.902 56.743 154.406C56.826 154.904 56.71 155.421 56.485 155.818C56.038 156.636 55.166 157.036 54.481 156.978C53.79 156.939 53.308 156.613 53.056 156.351C52.797 156.083 52.74 155.879 52.765 155.866C52.801 155.842 52.916 156.003 53.189 156.198C53.454 156.391 53.908 156.622 54.486 156.61C55.054 156.613 55.718 156.26 56.062 155.591C56.431 154.931 56.273 154.049 55.716 153.335C55.174 152.612 54.448 152.037 53.851 151.461C53.29 150.928 52.757 150.422 52.251 149.942C51.351 149.065 50.818 148.496 50.866 148.443Z" fill="#EB996E"/>
<path d="M59.426 147.853C56.294 148.597 53.284 149.856 50.555 151.564C50.392 151.666 50.218 151.785 50.166 151.97C50.093 152.229 50.292 152.484 50.502 152.652C51.305 153.293 52.412 153.402 53.436 153.317C54.46 153.232 55.472 152.98 56.5 153.003C58.278 153.042 59.924 153.893 61.638 154.366C63.353 154.838 65.442 154.827 66.619 153.493" fill="#FFBE9D"/>
<path d="M66.619 153.492C66.632 153.504 66.577 153.585 66.457 153.732C66.33 153.872 66.125 154.068 65.811 154.254C65.195 154.641 64.123 154.917 62.835 154.785C61.53 154.687 60.111 154.064 58.543 153.604C57.756 153.378 56.918 153.215 56.047 153.266C55.17 153.308 54.255 153.527 53.262 153.591C52.282 153.647 51.225 153.519 50.416 152.907C50.217 152.757 50.001 152.566 49.916 152.239C49.875 152.076 49.906 151.875 49.999 151.733C50.089 151.589 50.203 151.501 50.305 151.431C50.695 151.184 51.054 150.976 51.423 150.765C52.887 149.94 54.278 149.334 55.468 148.896C56.659 148.458 57.65 148.188 58.339 148.029C59.029 147.87 59.419 147.822 59.426 147.853C59.449 147.94 57.923 148.292 55.601 149.239C54.443 149.716 53.089 150.347 51.661 151.181C51.309 151.388 50.933 151.615 50.588 151.839C50.425 151.957 50.383 152.032 50.408 152.126C50.433 152.237 50.558 152.386 50.722 152.498C51.384 152.996 52.313 153.124 53.232 153.071C54.161 153.013 55.085 152.797 56.023 152.756C56.969 152.708 57.873 152.897 58.679 153.143C60.293 153.648 61.649 154.284 62.877 154.419C64.099 154.589 65.106 154.385 65.714 154.076C66.333 153.775 66.581 153.453 66.619 153.492Z" fill="#EB996E"/>
<path d="M115.793 173.669C115.662 173.704 115.131 171.93 115.07 169.664C114.998 167.397 115.425 165.597 115.558 165.623C115.709 165.646 115.52 167.44 115.591 169.649C115.649 171.857 115.942 173.638 115.793 173.669Z" fill="#EB996E"/>
<path d="M154.901 146.277L142.217 160.57C142.217 160.57 135.443 209.925 134.959 213.796C134.475 217.667 133.189 230.065 133.189 233.452C133.189 236.839 130.377 261.074 130.377 261.074C130.377 261.074 184.193 272.248 193.197 261.074L190.396 240.324L192.834 188.848C192.834 188.848 196.87 153.119 178.028 144.826C178.028 144.826 166.116 152.007 154.901 146.277Z" fill="#E8505B"/>
<path d="M186.668 149.893C186.668 149.893 182.955 146.227 171.104 149.297C158.614 152.533 152.023 164.224 155.122 197.323C157.677 224.615 168.472 228.544 168.472 228.544C168.472 228.544 162.559 187.374 163.575 170.152C164.858 148.399 186.667 153.815 186.667 153.815C189.774 152.81 186.668 149.893 186.668 149.893Z" fill="#263238"/>
<path d="M154.901 146.277L143.937 149.297L119.275 164.395L126.298 186.696L140.78 185.11L154.901 146.277Z" fill="#E8505B"/>
<path d="M140.634 161.76C140.777 161.773 140.153 169.746 139.241 179.565C138.328 189.387 137.472 197.336 137.329 197.323C137.186 197.31 137.81 189.339 138.723 179.517C139.635 169.697 140.491 161.747 140.634 161.76Z" fill="#263238"/>
<path d="M190.833 231.066C190.833 231.066 187.33 242.318 174.955 223.74C162.581 205.162 164.322 213.47 164.322 213.47L161.786 216.487C161.786 216.487 175.396 247.144 190.667 242.339L190.833 231.066Z" fill="#263238"/>
<path opacity="0.3" d="M140.135 167.123L130.376 186.249L138.44 185.366L140.135 167.123Z" fill="black"/>
<g opacity="0.3">
<path d="M135.66 217.907C142.812 225.703 151.329 232.244 160.707 237.142C164.643 239.197 168.988 241.007 173.392 240.444C178.229 239.825 182.377 236.317 184.662 232.009C186.948 227.701 186.62 225.622 187.165 220.777C187.765 215.437 187.767 208.311 188.048 203.442C188.098 202.579 188.114 201.579 188.114 200.632C188.113 198.517 189.495 196.655 191.521 196.046C191.521 196.046 188.571 194.658 186.594 194.939C184.617 195.22 183.12 196.867 182.085 198.574C176.599 207.622 178.988 220.888 168.517 226.522C165.101 228.36 161.116 228.794 157.288 228.169C148.72 226.771 142.159 221.137 135.84 215.647" fill="black"/>
</g>
<path d="M147.499 199.181C150.12 199.181 152.245 192.786 152.245 184.898C152.245 177.01 150.12 170.615 147.499 170.615C144.878 170.615 142.753 177.01 142.753 184.898C142.753 192.786 144.878 199.181 147.499 199.181Z" fill="#FAFAFA"/>
<path d="M150.038 433.263L151.127 456.773C151.127 456.773 127.596 465.776 127.374 470.14L173.034 469.666L172.841 432.965L150.038 433.263Z" fill="#E8505B"/>
<g opacity="0.6">
<path d="M165.225 454.648C166.111 454.88 166.732 455.868 166.536 456.763C166.34 457.658 165.342 458.298 164.451 458.081C163.561 457.864 162.779 456.702 163.074 455.835C163.369 454.968 164.582 454.28 165.394 454.704" fill="white"/>
</g>
<path opacity="0.6" d="M173.034 469.667L173.015 466.007L129.153 467.805C129.153 467.805 127.129 468.71 127.374 470.14L173.034 469.667Z" fill="white"/>
<path d="M150.384 456.549C150.394 456.772 151.509 456.861 152.614 457.567C153.737 458.244 154.312 459.204 154.517 459.113C154.722 459.067 154.376 457.738 153.024 456.907C151.679 456.065 150.334 456.345 150.384 456.549Z" fill="#263238"/>
<path d="M145.616 458.579C145.567 458.796 146.537 459.165 147.304 460.1C148.099 461.012 148.3 462.03 148.522 462.018C148.732 462.051 148.873 460.743 147.897 459.599C146.931 458.446 145.618 458.367 145.616 458.579Z" fill="#263238"/>
<path d="M142.955 464.339C143.158 464.385 143.457 463.267 142.872 462.052C142.295 460.832 141.239 460.362 141.147 460.548C141.023 460.733 141.707 461.381 142.172 462.386C142.66 463.38 142.733 464.32 142.955 464.339Z" fill="#263238"/>
<path d="M150.731 451.163C150.827 451.365 151.846 451.047 153.107 451.12C154.37 451.167 155.355 451.58 155.469 451.387C155.596 451.224 154.63 450.409 153.144 450.344C151.658 450.269 150.619 450.99 150.731 451.163Z" fill="#263238"/>
<path opacity="0.3" d="M150.259 437.92L150.448 442.109L172.887 441.672L172.876 437.895L150.259 437.92Z" fill="black"/>
<path d="M150.598 446.416C150.597 446.508 151.479 446.637 152.885 446.381C153.585 446.252 154.408 446.015 155.27 445.621C155.701 445.424 156.14 445.188 156.576 444.91C156.785 444.773 157.033 444.634 157.261 444.365C157.506 444.13 157.64 443.537 157.351 443.178C157.113 442.83 156.698 442.682 156.369 442.678C156.032 442.671 155.76 442.741 155.513 442.805C155.006 442.934 154.531 443.107 154.096 443.308C153.228 443.714 152.524 444.223 152.002 444.714C150.953 445.706 150.6 446.543 150.677 446.585C150.779 446.657 151.287 445.954 152.357 445.133C152.89 444.725 153.573 444.301 154.385 443.963C154.792 443.796 155.23 443.652 155.694 443.544C156.176 443.412 156.588 443.404 156.714 443.618C156.76 443.7 156.766 443.732 156.666 443.875C156.563 444.007 156.368 444.137 156.162 444.273C155.761 444.541 155.357 444.774 154.961 444.976C154.169 445.38 153.41 445.657 152.759 445.846C151.454 446.225 150.593 446.296 150.598 446.416Z" fill="#263238"/>
<path d="M150.892 446.733C150.971 446.766 151.405 445.963 151.472 444.518C151.503 443.802 151.42 442.934 151.134 442.018C150.989 441.561 150.793 441.094 150.537 440.636C150.265 440.188 149.932 439.587 149.066 439.497C148.614 439.485 148.242 439.841 148.117 440.145C147.969 440.455 147.942 440.721 147.891 440.986C147.813 441.52 147.828 442.043 147.905 442.526C148.059 443.496 148.465 444.301 148.906 444.878C149.811 446.052 150.744 446.309 150.762 446.233C150.835 446.12 150.053 445.698 149.359 444.568C149.017 444.011 148.71 443.275 148.613 442.427C148.564 442.004 148.566 441.556 148.641 441.105C148.707 440.619 148.885 440.226 149.068 440.273C149.295 440.267 149.685 440.629 149.876 441.014C150.115 441.421 150.306 441.838 150.455 442.248C150.75 443.07 150.883 443.859 150.922 444.525C151 445.863 150.77 446.7 150.892 446.733Z" fill="#263238"/>
<path d="M194.279 418.987L212.741 433.583C212.741 433.583 204.106 457.251 207.255 460.281L236.841 425.5L209.007 401.577L194.279 418.987Z" fill="#E8505B"/>
<g opacity="0.6">
<path d="M220.383 421.547C221.14 421.03 222.292 421.209 222.839 421.944C223.386 422.679 223.215 423.852 222.467 424.382C221.72 424.912 220.329 424.74 219.868 423.948C219.406 423.157 219.683 421.789 220.536 421.455" fill="white"/>
</g>
<path opacity="0.6" d="M236.841 425.5L234.065 423.115L206.658 457.407C206.658 457.407 206.014 459.528 207.254 460.281L236.841 425.5Z" fill="white"/>
<path d="M212.085 433.997C212.26 434.136 213.059 433.352 214.316 432.981C215.563 432.577 216.665 432.772 216.731 432.559C216.831 432.374 215.6 431.764 214.086 432.24C212.568 432.702 211.897 433.901 212.085 433.997Z" fill="#263238"/>
<path d="M210.49 438.928C210.622 439.107 211.536 438.617 212.745 438.651C213.955 438.65 214.855 439.165 214.992 438.989C215.155 438.852 214.26 437.888 212.756 437.875C211.253 437.848 210.332 438.787 210.49 438.928Z" fill="#263238"/>
<path d="M213.094 444.714C213.262 444.59 212.614 443.632 211.313 443.277C210.014 442.912 208.966 443.401 209.046 443.593C209.104 443.808 210.042 443.717 211.106 444.025C212.176 444.308 212.934 444.869 213.094 444.714Z" fill="#263238"/>
<path d="M208.246 430.204C208.461 430.264 208.89 429.286 209.772 428.381C210.635 427.459 211.593 426.986 211.523 426.773C211.484 426.57 210.235 426.765 209.211 427.845C208.179 428.917 208.042 430.174 208.246 430.204Z" fill="#263238"/>
<path opacity="0.3" d="M197.939 421.874L201.226 424.48L215.611 407.253L212.753 404.784L197.939 421.874Z" fill="black"/>
<path d="M204.576 427.19C204.645 427.252 205.321 426.67 206.049 425.44C206.411 424.828 206.771 424.05 207.039 423.141C207.172 422.687 207.283 422.2 207.359 421.689C207.392 421.441 207.45 421.163 207.397 420.815C207.38 420.476 207.021 419.986 206.56 419.969C206.141 419.92 205.758 420.137 205.539 420.383C205.313 420.632 205.188 420.884 205.074 421.113C204.838 421.58 204.658 422.053 204.524 422.512C204.261 423.434 204.184 424.299 204.212 425.015C204.273 426.458 204.673 427.273 204.755 427.243C204.877 427.214 204.679 426.369 204.76 425.023C204.801 424.353 204.929 423.559 205.206 422.725C205.347 422.309 205.525 421.883 205.748 421.463C205.965 421.012 206.229 420.697 206.473 420.742C206.565 420.761 206.593 420.777 206.635 420.946C206.667 421.11 206.637 421.342 206.605 421.587C206.544 422.065 206.455 422.523 206.348 422.955C206.133 423.818 205.845 424.573 205.561 425.188C204.993 426.419 204.481 427.115 204.576 427.19Z" fill="#263238"/>
<path d="M205.007 427.176C205.084 427.138 204.762 426.284 203.715 425.286C203.194 424.793 202.485 424.287 201.606 423.901C201.166 423.711 200.685 423.552 200.171 423.445C199.654 423.356 198.982 423.214 198.347 423.808C198.041 424.141 198.067 424.656 198.214 424.949C198.351 425.264 198.534 425.459 198.7 425.671C199.052 426.081 199.457 426.412 199.872 426.67C200.705 427.19 201.579 427.411 202.304 427.457C203.784 427.544 204.589 427.008 204.544 426.945C204.507 426.816 203.675 427.129 202.367 426.912C201.722 426.805 200.965 426.554 200.262 426.071C199.911 425.831 199.573 425.536 199.283 425.183C198.96 424.814 198.779 424.422 198.935 424.316C199.079 424.141 199.608 424.084 200.024 424.192C200.488 424.279 200.928 424.408 201.335 424.564C202.149 424.881 202.832 425.298 203.36 425.705C204.421 426.524 204.903 427.246 205.007 427.176Z" fill="#263238"/>
<path d="M143.088 333.796C143.088 333.796 144.309 277.645 143.088 277.645C141.867 277.645 133.211 272.702 133.211 272.702L122.394 356.154C122.394 356.154 121.419 365.522 133.012 372.125C144.605 378.727 196.442 424.817 196.442 424.817L213.982 403.454C213.982 403.454 179.873 367.902 165.939 356.154C155.038 346.963 143.088 333.796 143.088 333.796Z" fill="#263238"/>
<path d="M174.865 320.714L176.046 311.823C176.046 311.823 184.591 293.853 185.811 286.156C187.032 278.458 186.226 261.904 186.226 261.904H132.277C132.277 261.904 132.509 322.809 139.019 339.898C139.019 339.898 142.324 372.601 142.81 375.342C143.841 381.158 147.436 440.698 147.436 440.698L174.639 439.706C174.639 439.706 177.001 384.968 175.113 369.429C174.178 361.734 173.735 353.534 173.532 346.75C173.273 338.047 173.718 329.346 174.865 320.714Z" fill="#263238"/>
<path d="M133.752 279.666C133.761 279.666 133.773 279.757 133.787 279.934C133.8 280.142 133.817 280.401 133.837 280.722C133.872 281.454 133.919 282.467 133.98 283.751C134.082 286.382 134.276 290.188 134.547 294.887C135.089 304.287 136.096 317.256 137.581 331.545C139.063 345.839 140.656 358.753 141.808 368.099C142.376 372.743 142.838 376.514 143.163 379.169C143.31 380.446 143.426 381.453 143.509 382.182C143.54 382.502 143.566 382.76 143.586 382.967C143.6 383.144 143.604 383.236 143.595 383.237C143.586 383.238 143.565 383.149 143.534 382.974C143.5 382.769 143.458 382.513 143.406 382.195C143.299 381.47 143.151 380.467 142.963 379.195C142.599 376.545 142.081 372.78 141.444 368.145C140.199 358.809 138.547 345.899 137.064 331.597C135.577 317.301 134.628 304.316 134.18 294.905C133.956 290.2 133.818 286.39 133.778 283.756C133.759 282.47 133.744 281.456 133.733 280.723C133.733 280.401 133.734 280.142 133.734 279.934C133.737 279.758 133.743 279.667 133.752 279.666Z" fill="#455A64"/>
<path d="M173.479 351.756C173.497 351.754 173.551 352.057 173.637 352.638C173.724 353.264 173.841 354.113 173.989 355.182C174.261 357.395 174.6 360.605 174.908 364.58C175.55 372.529 176.035 383.537 176.216 395.701C176.359 407.869 176.167 418.887 175.734 426.851C175.53 430.833 175.276 434.051 175.061 436.27C174.941 437.343 174.846 438.194 174.775 438.822C174.704 439.405 174.658 439.709 174.64 439.707C174.622 439.705 174.633 439.396 174.67 438.811C174.716 438.181 174.779 437.328 174.858 436.253C175.01 434.031 175.209 430.814 175.365 426.834C175.703 418.876 175.837 407.867 175.694 395.708C175.513 383.554 175.087 372.554 174.54 364.607C174.279 360.633 173.996 357.422 173.786 355.204C173.679 354.131 173.594 353.28 173.532 352.651C173.48 352.067 173.461 351.759 173.479 351.756Z" fill="#455A64"/>
<path d="M184.09 148.638C184.09 148.638 192.92 150.994 194.799 164.151C196.679 177.308 193.196 181.067 193.196 181.067C193.196 181.067 194.63 156.572 183.658 153.23L184.09 149.117" fill="#263238"/>
<path d="M123.931 191.615L78.346 190.733L78.878 192.943L123.71 193.602L123.931 191.615Z" fill="#263238"/>
<path d="M179.195 152.769C177.498 152.318 175.7 152.537 174.081 153.219C170.386 154.774 163.628 159.244 163.146 171.857C162.369 192.232 162.369 192.232 162.369 192.232L191.521 196.046C191.521 196.046 193.996 156.705 179.195 152.769Z" fill="#E8505B"/>
<path d="M125.555 195.934L162.512 207.049L163.064 192.168L185.195 195.392L183.961 219.588C183.702 226.686 178.726 232.734 171.811 234.356C167.943 235.263 163.876 234.676 160.423 232.713L121.147 210.382L125.555 195.934Z" fill="#FFBE9D"/>
<path d="M191.521 196.046C191.515 196.039 191.506 195.922 191.495 195.698C191.484 195.448 191.47 195.124 191.453 194.716C191.422 193.828 191.377 192.577 191.321 190.982C191.217 187.732 191.069 183.088 190.887 177.363C190.804 174.497 190.713 171.362 190.616 167.998C190.593 167.157 190.569 166.301 190.545 165.432C190.501 165.005 190.456 164.575 190.411 164.142C190.321 163.715 190.255 163.279 190.145 162.85C189.702 161.135 188.884 159.466 187.735 157.992C185.435 155.081 181.733 152.864 177.649 152.79C175.618 152.738 173.581 153.36 171.798 154.461C170.007 155.556 168.493 157.129 167.281 158.917C165.516 161.495 164.525 164.466 163.948 167.412C163.373 170.37 163.187 173.325 163.044 176.19C162.881 181.932 162.728 187.325 162.588 192.238L162.397 192.015C171.117 193.205 178.365 194.194 183.469 194.89C185.998 195.245 187.994 195.525 189.394 195.722C190.058 195.819 190.58 195.895 190.966 195.951C191.325 196.005 191.514 196.038 191.521 196.046C191.529 196.055 191.355 196.039 191.011 196.002C190.634 195.958 190.125 195.9 189.477 195.825C188.086 195.656 186.104 195.416 183.592 195.111C178.444 194.466 171.135 193.551 162.34 192.449L162.144 192.424L162.149 192.225C162.27 187.312 162.358 181.917 162.545 176.164C162.681 173.292 162.861 170.314 163.441 167.311C164.021 164.322 165.033 161.275 166.848 158.623C168.095 156.784 169.658 155.158 171.525 154.018C173.377 152.873 175.53 152.219 177.655 152.278C181.929 152.367 185.737 154.674 188.111 157.694C189.296 159.225 190.137 160.958 190.587 162.736C190.699 163.18 190.766 163.631 190.856 164.074C190.9 164.524 190.944 164.971 190.988 165.414C191.007 166.293 191.026 167.158 191.045 168.009C191.114 171.407 191.178 174.575 191.237 177.47C191.336 183.204 191.417 187.856 191.474 191.112C191.496 192.683 191.513 193.916 191.525 194.79C191.527 195.183 191.529 195.495 191.53 195.736C191.531 195.948 191.527 196.053 191.521 196.046Z" fill="#263238"/>
<path d="M126.298 196.365L117.42 189.8C115.801 188.603 113.276 188.846 111.271 188.665C107.294 188.307 100.735 190.713 100.485 191.126L103.165 193.268L85.909 192.738C85.909 192.738 87.393 196.341 92.218 196.712C92.218 196.712 92.775 200.608 97.784 201.351C97.784 201.351 99.083 204.505 101.866 205.433C101.866 205.433 102.423 208.958 106.876 208.773L121.989 210.486L126.298 196.365Z" fill="#FFBE9D"/>
<path d="M103.017 197.355C103.009 197.499 100.562 197.471 97.552 197.294C94.542 197.117 92.109 196.857 92.117 196.713C92.125 196.57 94.572 196.597 97.582 196.774C100.592 196.951 103.025 197.211 103.017 197.355Z" fill="#EB996E"/>
<path d="M107.378 201.507C107.378 201.651 105.239 201.767 102.6 201.767C99.961 201.767 97.822 201.65 97.822 201.507C97.822 201.363 99.961 201.247 102.6 201.247C105.238 201.246 107.378 201.363 107.378 201.507Z" fill="#EB996E"/>
<path d="M112.072 205.433C112.072 205.577 109.933 205.693 107.294 205.693C104.655 205.693 102.516 205.576 102.516 205.433C102.516 205.29 104.655 205.173 107.294 205.173C109.933 205.173 112.072 205.289 112.072 205.433Z" fill="#EB996E"/>
<path d="M164.951 214.595C164.821 214.65 164.027 213.048 163.307 210.97C162.584 208.892 162.213 207.144 162.349 207.106C162.49 207.066 163.081 208.738 163.799 210.799C164.514 212.861 165.087 214.539 164.951 214.595Z" fill="#EB996E"/>
<path d="M167.629 213.161C167.51 213.248 166.316 211.804 164.839 210.034C163.364 208.261 162.161 206.826 162.267 206.725C162.369 206.628 163.752 207.913 165.239 209.701C166.728 211.486 167.743 213.079 167.629 213.161Z" fill="#EB996E"/>
</svg>
