<svg width="311" height="67" viewBox="0 0 311 67" fill="none" xmlns="http://www.w3.org/2000/svg">
<path fill-rule="evenodd" clip-rule="evenodd" d="M62.3982 24.1326C59.717 26.6216 60.4866 26.3345 54.2608 24.5158C48.8003 22.792 51.3875 22.2178 46.5055 24.9939C42.0984 27.5801 34.9163 30.1663 31.5627 32.176C32.8104 34.9543 43.5351 44.0513 46.1212 47.7859C45.1617 48.2641 44.3964 48.6483 43.344 49.1276C41.7152 49.8928 42.0984 49.8929 40.1836 48.7444C35.9698 46.3493 22.4658 38.689 19.7846 37.5384C16.2432 39.0711 6.8559 43.8602 3.60268 43.6681C2.06889 43.5731 -0.422302 43.19 0.0612555 41.2741C1.30361 36.582 9.73133 33.9948 15.1908 31.6007C17.3905 30.6444 16.8163 30.7405 17.2956 28.3443C17.873 25.7592 21.5116 6.98893 22.3729 6.03261C22.7561 5.7455 25.7244 4.50098 26.2975 4.21279C26.5857 5.93762 26.7768 7.85242 26.8728 9.67116L27.8292 20.3008C27.8292 22.0246 28.1173 24.0354 28.4055 25.6631C30.8946 24.4186 33.3847 23.3651 35.9708 22.1206C48.8013 15.9909 46.5066 20.1098 49.4716 13.2147C51.1986 9.38405 51.1986 7.08498 54.9322 7.66137C54.2608 15.3217 56.3645 20.1108 62.3982 24.1326ZM59.6209 14.6525C58.1865 15.1317 58.7606 17.3325 60.3873 16.9504L62.5914 16.1852C63.9298 15.8009 63.5488 13.5029 61.825 13.9811L59.6209 14.6525ZM309.086 66.2691C310.33 67.2265 311.767 65.3106 310.521 64.4482L309.564 63.5879C308.225 62.5334 306.883 64.5442 308.033 65.4077L309.086 66.2691ZM302.478 61.0007C303.725 61.9591 305.159 60.0433 304.013 59.0869L302.096 57.6503C300.852 56.6918 299.414 58.5105 300.661 59.469L302.478 61.0007ZM295.009 55.1602C296.156 56.1176 297.69 54.2988 296.443 53.3404L294.53 51.9037C293.285 50.9474 291.751 52.7672 293.093 53.8196L295.009 55.1602ZM287.346 49.7007C288.686 50.5642 289.935 48.5534 288.686 47.6909L286.774 46.3493C285.335 45.489 284.092 47.4999 285.432 48.3623L287.346 49.7007ZM279.495 44.3384C280.835 45.2008 282.079 43.191 280.835 42.3275L278.827 41.083C277.484 40.2217 276.24 42.2325 277.484 43.0928L279.495 44.3384ZM271.544 39.2632C272.791 40.1245 274.131 38.2097 272.791 37.2523L270.683 36.0078C269.535 35.2415 268.1 37.1563 269.535 38.1147L271.544 39.2632ZM263.406 34.4751C264.845 35.2404 265.8 33.1334 264.557 32.4642L262.448 31.2187C261.013 30.5494 259.957 32.6553 261.3 33.3256L263.406 34.4751ZM255.077 29.9731C256.511 30.6444 257.567 28.6314 256.129 27.8661L254.024 26.8127C252.585 26.0474 251.63 28.2493 252.969 28.9217L255.077 29.9731ZM246.55 25.7603C247.988 26.4306 249.042 24.3236 247.606 23.6544L245.497 22.5999C244.158 21.9296 243.009 24.0365 244.444 24.7057L246.55 25.7603ZM238.03 21.8346C239.564 22.4088 240.329 20.2058 238.891 19.6305L236.787 18.6731C235.252 18.1 234.39 20.398 235.828 20.8761L238.03 21.8346ZM229.221 18.291C230.656 18.8652 231.612 16.6633 230.082 15.992L227.877 15.2267C226.444 14.6525 225.582 16.8544 227.017 17.4286L229.221 18.291ZM220.408 15.0346C222.038 15.5138 222.516 13.1198 221.173 12.7377L218.877 11.9702C217.247 11.4921 216.77 13.789 218.111 14.2682L220.408 15.0346ZM211.408 12.0652C212.94 12.5434 213.513 10.2465 212.078 9.86329L209.778 9.193C208.247 8.71268 207.578 11.0117 209.109 11.3949L211.408 12.0652ZM202.309 9.57726C203.652 9.95936 204.512 7.75744 202.882 7.27712L200.588 6.70397C198.861 6.32188 198.575 8.71485 200.012 9.00304L202.309 9.57726ZM193.118 7.4714C194.649 7.75744 195.03 5.36231 193.596 5.0752L191.199 4.59704C189.669 4.30993 189.284 6.6079 190.817 6.89394L193.118 7.4714ZM183.827 5.65158C185.262 5.93869 185.84 3.63856 184.209 3.35253C183.444 3.1604 182.679 3.06542 181.814 2.87329C180.475 2.68224 179.807 4.98022 181.432 5.26734C182.297 5.36232 183.062 5.55551 183.827 5.65158ZM174.441 4.21386C176.073 4.4049 176.263 2.10693 174.729 1.91696L172.433 1.62769C170.804 1.43664 170.61 3.83176 172.145 3.92782L174.441 4.21386ZM165.058 3.25537C166.589 3.4475 166.876 1.05454 165.25 0.862413L162.855 0.671362C161.421 0.575298 161.036 2.87329 162.759 3.06434L165.058 3.25537ZM155.673 2.68224C157.303 2.68224 157.207 0.28819 155.769 0.28819L153.373 0.191051C151.747 0.191051 151.747 2.49011 153.278 2.58726L155.673 2.68224ZM146.191 2.39512C147.725 2.39512 147.822 0.096064 146.191 0C145.425 0 144.564 0 143.799 0C142.36 0 142.17 2.39512 143.799 2.39512C144.66 2.39512 145.425 2.39512 146.191 2.39512ZM136.713 2.58617C138.437 2.4901 138.148 0.0949791 136.618 0.189964L134.318 0.287103C132.69 0.383167 132.883 2.77614 134.414 2.68115L136.713 2.58617ZM127.327 3.06434C128.861 2.96935 128.765 0.575296 127.136 0.766344L124.738 0.957395C123.208 1.05346 123.4 3.35145 124.931 3.2543L127.327 3.06434ZM117.944 4.02282C119.378 3.83177 119.284 1.43664 117.655 1.62769C116.888 1.72375 116.028 1.81982 115.262 1.91696C113.824 2.01195 113.92 4.40598 115.551 4.21386C116.315 4.11887 117.08 4.02282 117.944 4.02282ZM108.559 5.17127C110.185 4.88415 109.611 2.58618 108.176 2.87329L105.781 3.25537C104.251 3.54249 104.728 5.84264 106.163 5.55553L108.559 5.17127ZM99.1712 6.79895C100.706 6.51184 100.322 4.21387 98.7891 4.50206L96.3983 4.88415C94.9585 5.17126 95.3416 7.5664 96.8754 7.27712L99.1712 6.79895ZM89.9804 8.71485C91.416 8.42773 91.0338 6.03368 89.4061 6.41685L87.1071 6.89502C85.4815 7.37534 86.2458 9.57726 87.6814 9.19516L89.9804 8.71485ZM80.7852 10.9157C82.3201 10.4386 81.6466 8.23668 80.211 8.61878L77.8169 9.19409C76.2853 9.67225 76.9545 11.8742 78.4894 11.4921L80.7852 10.9157ZM71.6893 13.4069C73.1249 13.0248 72.5507 10.7246 71.0169 11.11L68.72 11.7792C67.2823 12.1623 67.7637 14.5564 69.3892 14.0771L71.6893 13.4069Z" fill="#EE2737"/>
</svg>
