<svg width="203" height="202" viewBox="0 0 203 202" fill="none" xmlns="http://www.w3.org/2000/svg">
<g clip-path="url(#clip0_715_1994)">
<path fill-rule="evenodd" clip-rule="evenodd" d="M54.0468 28.7388H148.948L139.797 13.6478C136.33 7.9396 133.638 2.77539 126.277 1.74453C109.843 -0.583626 93.1632 -0.583626 76.7293 1.74453C69.3689 2.79601 66.6649 7.93801 63.2092 13.6462L54.0468 28.7388Z" fill="#A72530"/>
<path fill-rule="evenodd" clip-rule="evenodd" d="M68.7218 142.555L17.0013 198.609C16.1349 199.545 15.8229 200.608 16.1464 201.543C16.4585 202.468 17.3133 202.999 18.4805 202.999H36.2173C36.8988 202.983 37.5676 202.812 38.1725 202.497C38.7773 202.183 39.302 201.734 39.7063 201.185L80.8075 145.479C81.4775 144.567 81.6627 143.63 81.3273 142.798C80.9922 141.978 80.2413 141.492 79.1898 141.446L72.0836 141.1C71.4514 141.086 70.8236 141.209 70.2432 141.46C69.6628 141.711 69.1436 142.085 68.721 142.555H68.7218Z" fill="#142D38"/>
<path fill-rule="evenodd" clip-rule="evenodd" d="M134.285 142.555L186.005 198.609C186.86 199.545 187.172 200.608 186.86 201.543C186.548 202.468 185.693 202.999 184.515 202.999H166.789C166.107 202.985 165.438 202.814 164.833 202.499C164.228 202.185 163.703 201.735 163.3 201.185L122.199 145.479C121.528 144.567 121.344 143.63 121.667 142.798C122.002 141.978 122.753 141.492 123.805 141.446L130.923 141.1C131.555 141.086 132.183 141.209 132.763 141.46C133.343 141.711 133.863 142.085 134.285 142.555H134.285Z" fill="#142D38"/>
<path fill-rule="evenodd" clip-rule="evenodd" d="M55.6878 21.7825C86.2274 16.3506 116.779 16.7447 147.319 21.7825C154.449 22.9612 160.48 27.3293 160.48 34.1131V146.382C160.48 152.888 154.795 158.191 147.839 158.191H55.1676C48.1998 158.191 42.5265 152.888 42.5265 146.382V34.1119C42.5265 27.3293 48.5697 23.0536 55.6898 21.7813L55.6878 21.7825Z" fill="#E63341"/>
<path fill-rule="evenodd" clip-rule="evenodd" d="M59.7784 52.3459H143.228C144.9 52.3519 146.501 53.0185 147.683 54.2003C148.865 55.3822 149.532 56.9833 149.538 58.6547V86.9886C149.532 88.6601 148.865 90.2614 147.683 91.4433C146.501 92.6252 144.9 93.2918 143.228 93.2979H59.7784C58.1063 93.2938 56.5039 92.6278 55.3216 91.4454C54.1392 90.2631 53.4732 88.6607 53.4691 86.9886V58.6559C53.4732 56.9839 54.1392 55.3815 55.3216 54.1992C56.5039 53.017 58.1063 52.351 59.7784 52.347V52.3459Z" fill="#00CEF2"/>
<path fill-rule="evenodd" clip-rule="evenodd" d="M67.0348 105.349C69.719 105.348 72.3432 106.142 74.5756 107.633C76.808 109.123 78.5483 111.242 79.5765 113.721C80.6047 116.201 80.8745 118.929 80.352 121.562C79.8294 124.195 78.5378 126.614 76.6406 128.512C74.7434 130.411 72.3258 131.705 69.6935 132.229C67.0611 132.754 64.3323 132.486 61.852 131.46C59.3718 130.434 57.2515 128.696 55.7594 126.464C54.2672 124.233 53.4702 121.61 53.4691 118.925C53.4677 117.143 53.8176 115.378 54.4987 113.731C55.1798 112.084 56.1788 110.587 57.4386 109.326C58.6984 108.065 60.1944 107.065 61.841 106.382C63.4875 105.7 65.2524 105.349 67.0348 105.349ZM135.972 105.349C138.656 105.35 141.279 106.147 143.51 107.638C145.74 109.13 147.479 111.25 148.505 113.729C149.532 116.209 149.8 118.937 149.276 121.569C148.752 124.201 147.46 126.619 145.562 128.516C143.665 130.414 141.247 131.706 138.615 132.23C135.983 132.754 133.255 132.486 130.775 131.459C128.295 130.433 126.176 128.694 124.684 126.463C123.193 124.232 122.396 121.609 122.395 118.925C122.394 117.142 122.745 115.377 123.427 113.729C124.11 112.082 125.11 110.585 126.371 109.324C127.631 108.063 129.128 107.063 130.776 106.381C132.423 105.699 134.189 105.348 135.972 105.349Z" fill="#FEDB41"/>
<path d="M41.6368 189.527C40.8814 189.527 40.1569 189.227 39.6227 188.693C39.0885 188.158 38.7885 187.434 38.7885 186.679C38.7885 185.923 39.0885 185.199 39.6227 184.665C40.1569 184.13 40.8814 183.83 41.6368 183.83H160.642C161.397 183.83 162.122 184.13 162.656 184.665C163.19 185.199 163.49 185.923 163.49 186.679C163.49 187.434 163.19 188.158 162.656 188.693C162.122 189.227 161.397 189.527 160.642 189.527H41.6368ZM52.152 175.291C51.7771 175.291 51.4059 175.217 51.0595 175.074C50.7132 174.93 50.3985 174.72 50.1334 174.455C49.8683 174.19 49.658 173.875 49.5146 173.529C49.3711 173.183 49.2973 172.811 49.2973 172.436C49.2973 172.062 49.3711 171.69 49.5146 171.344C49.658 170.998 49.8683 170.683 50.1334 170.418C50.3985 170.153 50.7132 169.943 51.0595 169.799C51.4059 169.656 51.7771 169.582 52.152 169.582H150.115C150.872 169.582 151.599 169.883 152.134 170.418C152.669 170.953 152.97 171.679 152.97 172.436C152.97 173.194 152.669 173.92 152.134 174.455C151.599 174.99 150.872 175.291 150.115 175.291H52.152Z" fill="#142D38"/>
<path d="M79.3988 12.6875C78.6417 12.6875 77.9156 12.3867 77.3802 11.8514C76.8449 11.316 76.5441 10.5899 76.5441 9.83282C76.5441 9.07571 76.8449 8.34961 77.3802 7.81425C77.9156 7.27889 78.6417 6.97813 79.3988 6.97813H79.5836C80.3407 6.97813 81.0668 7.27889 81.6021 7.81425C82.1375 8.34961 82.4383 9.07571 82.4383 9.83282C82.4383 10.5899 82.1375 11.316 81.6021 11.8514C81.0668 12.3867 80.3407 12.6875 79.5836 12.6875H79.3988ZM123.423 12.6875C122.666 12.6875 121.94 12.3867 121.405 11.8514C120.869 11.316 120.569 10.5899 120.569 9.83282C120.569 9.07571 120.869 8.34961 121.405 7.81425C121.94 7.27889 122.666 6.97813 123.423 6.97813H123.596C124.354 6.97813 125.08 7.27889 125.615 7.81425C126.15 8.34961 126.451 9.07571 126.451 9.83282C126.451 10.5899 126.15 11.316 125.615 11.8514C125.08 12.3867 124.354 12.6875 123.596 12.6875H123.423ZM112.423 12.6875C111.666 12.6875 110.94 12.3867 110.404 11.8514C109.869 11.316 109.568 10.5899 109.568 9.83282C109.568 9.07571 109.869 8.34961 110.404 7.81425C110.94 7.27889 111.666 6.97813 112.423 6.97813H112.596C113.353 6.97813 114.079 7.27889 114.615 7.81425C115.15 8.34961 115.451 9.07571 115.451 9.83282C115.451 10.5899 115.15 11.316 114.615 11.8514C114.079 12.3867 113.353 12.6875 112.596 12.6875H112.423ZM101.411 12.6875C100.654 12.6875 99.9276 12.3867 99.3922 11.8514C98.8569 11.316 98.5561 10.5899 98.5561 9.83282C98.5561 9.07571 98.8569 8.34961 99.3922 7.81425C99.9276 7.27889 100.654 6.97813 101.411 6.97813H101.584C102.341 6.97813 103.067 7.27889 103.603 7.81425C104.138 8.34961 104.439 9.07571 104.439 9.83282C104.439 10.5899 104.138 11.316 103.603 11.8514C103.067 12.3867 102.341 12.6875 101.584 12.6875H101.411ZM90.4108 12.6875C89.6537 12.6875 88.9276 12.3867 88.3922 11.8514C87.8568 11.316 87.5561 10.5899 87.5561 9.83282C87.5561 9.07571 87.8568 8.34961 88.3922 7.81425C88.9276 7.27889 89.6537 6.97813 90.4108 6.97813H90.584C91.3411 6.97813 92.0672 7.27889 92.6026 7.81425C93.1379 8.34961 93.4387 9.07571 93.4387 9.83282C93.4387 10.5899 93.1379 11.316 92.6026 11.8514C92.0672 12.3867 91.3411 12.6875 90.584 12.6875H90.4108Z" fill="#EAF6FF"/>
<path fill-rule="evenodd" clip-rule="evenodd" d="M144.476 32.1945C145.477 32.1934 146.455 32.489 147.287 33.0441C148.12 33.5991 148.769 34.3886 149.152 35.3127C149.535 36.2367 149.636 37.2537 149.441 38.2349C149.246 39.2162 148.765 40.1175 148.057 40.8249C147.35 41.5323 146.448 42.0139 145.467 42.2088C144.486 42.4037 143.469 42.3031 142.545 41.9197C141.621 41.5363 140.831 40.8874 140.276 40.0551C139.721 39.2228 139.426 38.2446 139.427 37.2442C139.429 35.9055 139.961 34.6223 140.908 33.6757C141.855 32.7292 143.138 32.1965 144.476 32.1945ZM74.3011 40.0973C73.544 40.0973 72.8179 39.7965 72.2826 39.2611C71.7472 38.7258 71.4464 37.9997 71.4464 37.2426C71.4464 36.4855 71.7472 35.7594 72.2826 35.224C72.8179 34.6886 73.544 34.3879 74.3011 34.3879H128.704C129.461 34.3879 130.187 34.6886 130.722 35.224C131.258 35.7594 131.559 36.4855 131.559 37.2426C131.559 37.9997 131.258 38.7258 130.722 39.2611C130.187 39.7965 129.461 40.0973 128.704 40.0973H74.3011ZM58.5187 32.1945C59.5191 32.1934 60.4973 32.489 61.3296 33.0441C62.1619 33.5991 62.8108 34.3886 63.1942 35.3127C63.5776 36.2367 63.6782 37.2537 63.4833 38.2349C63.2885 39.2162 62.8068 40.1175 62.0995 40.8249C61.3921 41.5323 60.4907 42.0139 59.5095 42.2088C58.5282 42.4037 57.5112 42.3031 56.5872 41.9197C55.6632 41.5363 54.8737 40.8874 54.3186 40.0551C53.7635 39.2228 53.4679 38.2446 53.4691 37.2442C53.4687 36.5809 53.5991 35.9242 53.8528 35.3114C54.1065 34.6986 54.4784 34.1418 54.9474 33.6728C55.4163 33.2039 55.9731 32.8319 56.5859 32.5783C57.1987 32.3246 57.8555 32.1942 58.5187 32.1945Z" fill="#A72530"/>
<path d="M111.753 60.8041C112.017 60.5385 112.332 60.3277 112.678 60.1837C113.024 60.0397 113.396 59.9653 113.771 59.9648C114.146 59.9643 114.517 60.0376 114.864 60.1806C115.21 60.3236 115.525 60.5335 115.791 60.7983C116.057 61.0631 116.267 61.3776 116.411 61.7238C116.555 62.0701 116.63 62.4413 116.63 62.8163C116.631 63.1913 116.557 63.5627 116.414 63.9094C116.271 64.2561 116.062 64.5712 115.797 64.8367L95.7953 84.8266C95.2606 85.3615 94.5352 85.6619 93.7789 85.662C93.0226 85.662 92.2973 85.3616 91.7625 84.8268C91.2277 84.2921 90.9272 83.5668 90.9272 82.8105C90.9271 82.0542 91.2275 81.3288 91.7623 80.794L111.753 60.8041ZM131.939 60.8041C132.204 60.5383 132.518 60.3274 132.864 60.1833C133.211 60.0393 133.582 59.9649 133.957 59.9645C134.332 59.9641 134.703 60.0376 135.05 60.1809C135.396 60.3243 135.711 60.5345 135.976 60.7997C136.241 61.0648 136.452 61.3797 136.595 61.7262C136.738 62.0727 136.812 62.4441 136.811 62.8191C136.811 63.1941 136.737 63.5653 136.593 63.9115C136.449 64.2577 136.238 64.5721 135.972 64.8367L115.982 84.8266C115.447 85.3615 114.722 85.6619 113.966 85.662C113.209 85.662 112.484 85.3616 111.949 84.8268C111.414 84.2921 111.114 83.5668 111.114 82.8105C111.114 82.0542 111.414 81.3288 111.949 80.794L131.939 60.8041Z" fill="#EAF6FF"/>
<path fill-rule="evenodd" clip-rule="evenodd" d="M120.604 158.19L119.067 151.673C117.935 146.924 115.069 142.799 110.193 142.799H92.8023C87.9256 142.799 85.0606 146.922 83.9397 151.673L82.3914 158.19H120.604Z" fill="#A72530"/>
<path d="M92.4094 110.733C91.6523 110.733 90.9262 110.433 90.3908 109.897C89.8555 109.362 89.5547 108.636 89.5547 107.879C89.5547 107.121 89.8555 106.395 90.3908 105.86C90.9262 105.325 91.6523 105.024 92.4094 105.024H110.597C111.354 105.024 112.081 105.325 112.616 105.86C113.151 106.395 113.452 107.121 113.452 107.879C113.452 108.636 113.151 109.362 112.616 109.897C112.081 110.433 111.354 110.733 110.597 110.733H92.4094ZM92.4094 132.815C91.6523 132.815 90.9262 132.514 90.3908 131.979C89.8555 131.443 89.5547 130.717 89.5547 129.96C89.5547 129.203 89.8555 128.477 90.3908 127.941C90.9262 127.406 91.6523 127.105 92.4094 127.105H110.597C111.354 127.105 112.081 127.406 112.616 127.941C113.151 128.477 113.452 129.203 113.452 129.96C113.452 130.717 113.151 131.443 112.616 131.979C112.081 132.514 111.354 132.815 110.597 132.815H92.4094ZM92.4094 121.78C91.6523 121.78 90.9262 121.479 90.3908 120.944C89.8555 120.408 89.5547 119.682 89.5547 118.925C89.5547 118.168 89.8555 117.442 90.3908 116.906C90.9262 116.371 91.6523 116.07 92.4094 116.07H110.597C111.354 116.07 112.081 116.371 112.616 116.906C113.151 117.442 113.452 118.168 113.452 118.925C113.452 119.682 113.151 120.408 112.616 120.944C112.081 121.479 111.354 121.78 110.597 121.78H92.4094Z" fill="#A72530"/>
<path fill-rule="evenodd" clip-rule="evenodd" d="M71.5182 13.6478C73.783 9.91568 76.1746 4.77367 79.6065 1.3651C78.6473 1.48061 77.6882 1.60761 76.7292 1.74612C69.3689 2.7976 66.6649 7.9396 63.2091 13.6478L58.5766 21.2857C61.6153 20.7889 64.6658 20.3385 67.7049 19.9456L71.5182 13.6478Z" fill="#96212B"/>
<path fill-rule="evenodd" clip-rule="evenodd" d="M51.0886 148.53V32.1243C51.0886 27.1905 54.0702 23.5274 58.3106 21.332C57.4323 21.4823 56.5541 21.6326 55.6878 21.7824C48.5697 23.0536 42.5245 27.3293 42.5245 34.1131V146.382C42.5245 152.622 47.7474 157.763 54.3104 158.168C54.5995 158.191 54.8766 158.191 55.1656 158.191H55.963C54.4686 157.058 53.2526 155.599 52.4075 153.925C51.5624 152.251 51.1105 150.406 51.0862 148.531L51.0886 148.53Z" fill="#CF2E3B"/>
<path fill-rule="evenodd" clip-rule="evenodd" d="M62.2742 86.9886V58.6559C62.2783 56.9839 62.9443 55.3816 64.1265 54.1993C65.3088 53.0171 66.9111 52.3511 68.583 52.347H59.7783C58.1063 52.351 56.5039 53.0169 55.3215 54.1992C54.1392 55.3815 53.4731 56.9838 53.4691 58.6559V86.9886C53.4731 88.6607 54.1392 90.2631 55.3215 91.4454C56.5038 92.6278 58.1062 93.2938 59.7783 93.2979H68.583C66.911 93.2938 65.3086 92.6278 64.1264 91.4454C62.9441 90.2631 62.2782 88.6607 62.2742 86.9886Z" fill="#00B9DA"/>
<path fill-rule="evenodd" clip-rule="evenodd" d="M57.987 118.926C57.9863 115.718 59.1222 112.613 61.1932 110.164C63.2642 107.714 66.1362 106.077 69.2995 105.544C68.5516 105.414 67.7939 105.347 67.0348 105.346C63.4354 105.346 59.9835 106.776 57.4384 109.321C54.8933 111.866 53.4635 115.318 53.4635 118.917C53.4635 122.516 54.8933 125.968 57.4384 128.514C59.9835 131.059 63.4354 132.488 67.0348 132.488C67.7933 132.486 68.5505 132.424 69.2995 132.304C66.1363 131.771 63.2643 130.134 61.1933 127.684C59.1224 125.235 57.9864 122.13 57.987 118.923V118.926ZM122.395 118.926C122.397 122.525 123.828 125.976 126.374 128.52C128.92 131.064 132.373 132.492 135.972 132.491C136.727 132.488 137.48 132.427 138.225 132.306C135.064 131.771 132.194 130.133 130.125 127.684C128.055 125.234 126.92 122.132 126.92 118.925C126.92 115.719 128.055 112.616 130.125 110.166C132.194 107.717 135.064 106.079 138.225 105.544C137.481 105.413 136.727 105.347 135.972 105.346C134.189 105.345 132.423 105.697 130.775 106.379C129.128 107.061 127.631 108.062 126.37 109.323C125.109 110.584 124.109 112.081 123.427 113.729C122.745 115.376 122.394 117.142 122.395 118.926Z" fill="#E5C53B"/>
<path fill-rule="evenodd" clip-rule="evenodd" d="M88.8276 151.673C89.9484 146.924 92.8253 142.799 97.7017 142.799H92.8023C87.9256 142.799 85.0606 146.922 83.9397 151.673L82.3914 158.19H87.2908L88.8276 151.673Z" fill="#96212B"/>
</g>
<defs>
<clipPath id="clip0_715_1994">
<rect width="203" height="203" fill="white"/>
</clipPath>
</defs>
</svg>
